<svg width="47" height="45" viewBox="0 0 47 45" fill="none" xmlns="http://www.w3.org/2000/svg">
<path fill-rule="evenodd" clip-rule="evenodd" d="M1.24453 44.0166H1.09874C1.09874 43.9439 1.06223 43.8343 1.06223 43.7976C1.06223 43.7613 1.06223 43.6885 0.952695 43.6885H0.73362V44.0166H0.624083V43.2504H0.952695C1.09874 43.2504 1.20802 43.2872 1.20802 43.4327C1.20802 43.5422 1.17151 43.579 1.13526 43.615C1.17177 43.6518 1.20802 43.6883 1.20802 43.7613V43.9071C1.20802 43.9439 1.20802 43.9439 1.24453 43.9439V44.0166ZM1.09874 43.4695C1.09874 43.3599 1.02572 43.3599 0.989208 43.3599H0.73362V43.579H0.952695C1.02572 43.579 1.09874 43.5422 1.09874 43.4695ZM1.71919 43.6153C1.71919 43.1776 1.35433 42.8123 0.87967 42.8123C0.441785 42.8123 0.0766602 43.1776 0.0766602 43.6153C0.0766602 44.0897 0.441785 44.455 0.87967 44.455C1.35407 44.4548 1.71919 44.0897 1.71919 43.6153ZM1.60966 43.6153C1.60966 44.0169 1.28131 44.3087 0.87967 44.3087C0.478033 44.3087 0.186198 44.0166 0.186198 43.6153C0.186198 43.2504 0.478297 42.9218 0.87967 42.9218C1.28104 42.9218 1.60966 43.2504 1.60966 43.6153ZM46.5766 28.8698C46.5766 29.9649 45.8831 30.4753 44.642 30.4753H42.27V29.3802H44.642C44.8611 29.3802 45.0436 29.3439 45.1169 29.2711C45.1897 29.1979 45.2627 29.0883 45.2627 28.9425C45.2627 28.7962 45.1899 28.6504 45.1169 28.5777C45.0436 28.5044 44.8978 28.4681 44.6788 28.4681C43.5477 28.4314 42.124 28.5044 42.124 26.8986C42.124 26.1684 42.5984 25.3654 43.8758 25.3654H46.321V26.4605H44.0581C43.8395 26.4605 43.6932 26.4605 43.5837 26.5332C43.4741 26.6428 43.4014 26.7523 43.4014 26.9349C43.4014 27.1174 43.5109 27.227 43.6567 27.3003C43.803 27.3365 43.949 27.373 44.1316 27.373H44.7883C45.4818 27.373 45.9199 27.5188 46.212 27.7747C46.4306 28.03 46.5766 28.3589 46.5766 28.8698ZM41.4302 27.7747C41.1381 27.5188 40.7 27.373 40.0065 27.373H39.3498C39.1675 27.373 39.0212 27.3362 38.8754 27.3003C38.7291 27.227 38.6201 27.1174 38.6201 26.9349C38.6201 26.7523 38.6563 26.6428 38.8024 26.5332C38.9119 26.4605 39.0577 26.4605 39.2768 26.4605H41.5398V25.3654H39.0945C37.7803 25.3654 37.3421 26.1684 37.3421 26.8986C37.3421 28.5041 38.7659 28.4314 39.8975 28.4681C40.116 28.4681 40.2623 28.5044 40.3351 28.5777C40.4079 28.6504 40.4814 28.7962 40.4814 28.9425C40.4814 29.0883 40.4081 29.1979 40.3351 29.2711C40.2256 29.3439 40.0798 29.3802 39.8607 29.3802H37.4882V30.4753H39.8607C41.1013 30.4753 41.7951 29.9646 41.7951 28.8698C41.7951 28.3589 41.6493 28.03 41.4302 27.7747ZM36.7582 29.4172H33.8753V28.3951H36.6854V27.3736H33.8753V26.4242H36.7582V25.3659H32.6707V30.4755H36.7582V29.4172ZM31.3565 25.6215C30.9548 25.4024 30.4804 25.3656 29.86 25.3656H27.0499V30.4753H28.2905V28.6139H29.6047C30.0423 28.6139 30.2981 28.6507 30.4807 28.833C30.6998 29.0883 30.6998 29.5265 30.6998 29.8551V30.4753H31.9039V29.4897C31.9039 29.0153 31.8677 28.7962 31.7216 28.5409C31.6121 28.3946 31.3935 28.2123 31.1014 28.1027C31.4295 27.9937 31.9775 27.5556 31.9775 26.7523C31.9772 26.1686 31.7581 25.84 31.3565 25.6215ZM24.4218 25.3656H20.5162L18.9467 27.0447L17.4503 25.3656H12.5229V30.4753H17.3775L18.947 28.7962L20.4435 30.4753H22.816V28.7602H24.349C25.4073 28.7602 26.4662 28.4681 26.4662 27.0447C26.4659 25.6577 25.3708 25.3656 24.4218 25.3656ZM30.3709 27.4828C30.1886 27.5556 30.006 27.5556 29.787 27.5556L28.2905 27.5924V26.424H29.787C30.006 26.424 30.2251 26.424 30.3709 26.5335C30.5172 26.6068 30.6262 26.7526 30.6262 26.9717C30.6262 27.1907 30.5172 27.3733 30.3709 27.4828ZM24.4218 27.7382H22.8157V26.424H24.4218C24.8599 26.424 25.1517 26.6068 25.1517 27.0447C25.1517 27.4828 24.8596 27.7382 24.4218 27.7382ZM19.7132 27.9204L21.6111 25.9133V30.0376L19.7132 27.9204ZM16.7568 29.4172H13.7273V28.3951H16.4282V27.3736H13.7273V26.4242H16.7933L18.1437 27.9207L16.7568 29.4172ZM43.182 21.6792H41.4302L39.1307 17.8467V21.6792H36.6492L36.1743 20.5476H33.6195L33.1451 21.6792H31.7213C31.1374 21.6792 30.3709 21.5331 29.9333 21.095C29.5316 20.6571 29.3126 20.0732 29.3126 19.1606C29.3126 18.3941 29.4221 17.7007 29.9693 17.1532C30.3341 16.7516 30.9914 16.5693 31.8306 16.5693H32.9985V17.6644H31.8306C31.393 17.6644 31.1371 17.7374 30.8818 17.9565C30.6627 18.1756 30.5532 18.577 30.5532 19.1244C30.5532 19.6718 30.6627 20.0734 30.8818 20.329C31.0641 20.5113 31.393 20.5844 31.7211 20.5844H32.2688L34.0206 16.5696H35.8457L37.8896 21.3874V16.5693H39.7877L41.9411 20.1097V16.5693H43.1818V21.6792H43.182ZM28.6921 16.5693H27.4515V21.6792H28.6921V16.5693ZM26.1005 16.7884C25.6989 16.5693 25.2613 16.5693 24.6408 16.5693H21.8302V21.6792H23.0345V19.8176H24.3485C24.7866 19.8176 25.0787 19.8541 25.261 20.0367C25.4801 20.2923 25.4433 20.7304 25.4433 21.0222V21.6792H26.6839V20.6571C26.6839 20.2192 26.6477 20.0002 26.4654 19.7446C26.3559 19.5985 26.1368 19.416 25.8815 19.3067C26.2095 19.1606 26.7575 18.7593 26.7575 17.9562C26.7578 17.3723 26.5019 17.0437 26.1005 16.7884ZM20.9541 20.6209H18.1072V19.5988H20.9176V18.5404H18.1072V17.6279H20.9541V16.5696H16.8663V21.6795H20.9541V20.6209ZM15.9538 16.5693H13.9464L12.4499 20.0367L10.8439 16.5693H8.87299V21.3871L6.79257 16.5693H4.96774L2.77779 21.6792H4.09171L4.56611 20.5476H7.12092L7.59532 21.6792H10.0774V17.6644L11.8657 21.6792H12.924L14.7126 17.6644V21.6792H15.9535V16.5693H15.9538ZM35.7367 19.4527L34.8969 17.4453L34.0576 19.4527H35.7367ZM25.1517 18.65C24.9694 18.7595 24.7869 18.7595 24.5313 18.7595H23.0345V17.6282H24.531C24.7501 17.6282 25.0052 17.6282 25.1515 17.7012C25.2973 17.8107 25.3705 17.9568 25.3705 18.1756C25.3705 18.3944 25.2975 18.5767 25.1517 18.65ZM5.00399 19.4527L5.84351 17.4453L6.68304 19.4527H5.00399ZM46.2848 0.546143H2.74101V18.9418L4.23749 15.5475H7.41276L7.85091 16.387V15.5475H11.5739L12.4134 17.3723L13.2164 15.5475H25.0787C25.6259 15.5475 26.1003 15.657 26.4657 15.9489V15.5475H29.7139V15.9489C30.2611 15.6568 30.9546 15.5475 31.7578 15.5475H36.4661L36.9043 16.387V15.5475H40.3716L40.8828 16.387V15.5475H44.2769V22.7013H40.8463L40.1896 21.6064V22.7013H35.9189L35.4445 21.5334H34.3857L33.9113 22.7013H31.6851C30.8091 22.7013 30.1518 22.4822 29.7142 22.2634V22.7013H24.4218V21.0587C24.4218 20.8397 24.3852 20.8032 24.2392 20.8032H24.0569V22.701H13.8368V21.7885L13.472 22.701H11.3185L10.9537 21.825V22.701H6.82909L6.3912 21.5331H5.3326L4.85821 22.701H2.74101V44.2722H46.2848V31.1687C45.8104 31.3878 45.1532 31.4974 44.4962 31.4974H41.3207V31.0592C40.9558 31.3516 40.2986 31.4974 39.6784 31.4974H29.6774V29.8551C29.6774 29.636 29.6412 29.636 29.4584 29.636H29.2761V31.4974H25.991V29.563C25.4438 29.8183 24.8231 29.8183 24.2757 29.8183H23.9106V31.4974H19.8958L18.947 30.4022L17.8887 31.4974H11.4278V24.3438H17.9977L18.9467 25.4384L19.9688 24.3438H24.3852C24.8959 24.3438 25.7357 24.4166 26.1005 24.7814V24.3438H30.0423C30.4439 24.3438 31.2107 24.4166 31.7213 24.7814V24.3438H37.6708V24.7817C37.9994 24.4896 38.6201 24.3441 39.1672 24.3441H42.4885V24.7817C42.8539 24.5264 43.3646 24.3441 44.0218 24.3441H46.2848V0.546143Z" fill="#0077A6"/>
</svg>
