<svg width="30" height="30" viewBox="0 0 30 30" fill="none" xmlns="http://www.w3.org/2000/svg">
<path d="M27.7532 5.17236H2.24678C1.00588 5.17236 0 6.17824 0 7.41914V22.5808C0 23.8216 1.00588 24.8276 2.24678 24.8276H27.7532C28.9941 24.8276 30 23.8217 30 22.5808V7.41914C30 6.17824 28.9941 5.17236 27.7532 5.17236Z" fill="#F5F5F5"/>
<path d="M0.123596 6.68432H29.8764C29.5719 5.80441 28.7366 5.17236 27.7532 5.17236H2.2468C1.26336 5.17236 0.428108 5.80441 0.123596 6.68432Z" fill="#FF4B55"/>
<path d="M30 11.22H0V12.7319H30V11.22Z" fill="#FF4B55"/>
<path d="M30 8.19604H0V9.70794H30V8.19604Z" fill="#FF4B55"/>
<path d="M0 15.2386C0 15.5242 0.231621 15.7558 0.517266 15.7558H30V14.2439H0V15.2386Z" fill="#FF4B55"/>
<path d="M30 20.2922H0V21.8042H30V20.2922Z" fill="#FF4B55"/>
<path d="M29.8764 23.3154H0.123596C0.428108 24.1953 1.26342 24.8274 2.2468 24.8274H27.7532C28.7367 24.8274 29.5719 24.1953 29.8764 23.3154Z" fill="#FF4B55"/>
<path d="M30 17.2681H0V18.78H30V17.2681Z" fill="#FF4B55"/>
<path d="M0.517266 15.756H13.4483C13.734 15.756 13.9656 15.5244 13.9656 15.2387V5.68963C13.9656 5.40393 13.734 5.17236 13.4483 5.17236H2.24678C1.00588 5.17242 0 6.1783 0 7.4192V15.2387C0 15.5244 0.231621 15.756 0.517266 15.756Z" fill="#41479B"/>
<path d="M1.45245 6.35976L1.56694 6.70312L1.92887 6.70588C1.97575 6.70629 1.99514 6.76605 1.95746 6.79388L1.66631 7.00886L1.77553 7.35392C1.78971 7.39857 1.73879 7.4356 1.70065 7.4083L1.40622 7.19789L1.11178 7.40836C1.07364 7.43566 1.02284 7.39863 1.0369 7.35398L1.14612 7.00892L0.854967 6.79394C0.817292 6.76605 0.836686 6.70629 0.883561 6.70593L1.24549 6.70318L1.35999 6.35982C1.37475 6.31529 1.43756 6.31529 1.45245 6.35976Z" fill="#F5F5F5"/>
<path d="M1.45245 8.15562L1.56694 8.49898L1.92887 8.50174C1.97575 8.50215 1.99514 8.56185 1.95746 8.58974L1.66631 8.80479L1.77553 9.14985C1.78971 9.1945 1.73879 9.23153 1.70065 9.20422L1.40622 8.99381L1.11178 9.20428C1.07364 9.23153 1.02284 9.19456 1.0369 9.14991L1.14612 8.80484L0.854967 8.5898C0.817292 8.56191 0.836686 8.5022 0.883561 8.50179L1.24549 8.49904L1.35999 8.15568C1.37475 8.1112 1.43756 8.1112 1.45245 8.15562Z" fill="#F5F5F5"/>
<path d="M1.45245 9.9518L1.56694 10.2952L1.92887 10.2979C1.97575 10.2983 1.99514 10.358 1.95746 10.3859L1.66631 10.601L1.77553 10.946C1.78971 10.9907 1.73879 11.0277 1.70065 11.0004L1.40622 10.79L1.11178 11.0005C1.07364 11.0277 1.02284 10.9908 1.0369 10.9461L1.14612 10.601L0.854967 10.386C0.817292 10.3581 0.836686 10.2984 0.883561 10.298L1.24549 10.2952L1.35999 9.95186C1.37475 9.90733 1.43756 9.90733 1.45245 9.9518Z" fill="#F5F5F5"/>
<path d="M1.45245 11.7479L1.56694 12.0913L1.92887 12.0941C1.97575 12.0945 1.99514 12.1542 1.95746 12.1821L1.66631 12.3971L1.77553 12.7422C1.78971 12.7868 1.73879 12.8238 1.70065 12.7965L1.40622 12.5861L1.11178 12.7966C1.07364 12.8238 1.02284 12.7869 1.0369 12.7422L1.14612 12.3972L0.854967 12.1821C0.817292 12.1543 0.836686 12.0945 0.883561 12.0941L1.24549 12.0914L1.35999 11.748C1.37475 11.7035 1.43756 11.7035 1.45245 11.7479Z" fill="#F5F5F5"/>
<path d="M1.45245 13.544L1.56694 13.8874L1.92887 13.8902C1.97575 13.8906 1.99514 13.9503 1.95746 13.9782L1.66631 14.1932L1.77553 14.5383C1.78971 14.5829 1.73879 14.6199 1.70065 14.5926L1.40622 14.3822L1.11178 14.5927C1.07364 14.6199 1.02284 14.583 1.0369 14.5383L1.14612 14.1933L0.854967 13.9782C0.817292 13.9503 0.836686 13.8906 0.883561 13.8902L1.24549 13.8875L1.35999 13.5441C1.37475 13.4996 1.43756 13.4996 1.45245 13.544Z" fill="#F5F5F5"/>
<path d="M2.84661 7.2401L2.9611 7.58346L3.32304 7.58621C3.36991 7.58662 3.38931 7.64639 3.35163 7.67422L3.06048 7.88926L3.1697 8.23432C3.18388 8.27897 3.13296 8.316 3.09481 8.2887L2.80038 8.07823L2.50595 8.2887C2.4678 8.31595 2.417 8.27897 2.43107 8.23432L2.54028 7.88926L2.24913 7.67422C2.21146 7.64633 2.23085 7.58662 2.27773 7.58621L2.63966 7.58346L2.75415 7.2401C2.76892 7.19568 2.83179 7.19568 2.84661 7.2401Z" fill="#F5F5F5"/>
<path d="M2.84661 9.03628L2.9611 9.37964L3.32304 9.3824C3.36991 9.38281 3.38931 9.44257 3.35163 9.47041L3.06048 9.68544L3.1697 10.0305C3.18388 10.0752 3.13296 10.1122 3.09481 10.0849L2.80038 9.87441L2.50595 10.0849C2.4678 10.1121 2.417 10.0752 2.43107 10.0305L2.54028 9.68544L2.24913 9.47041C2.21146 9.44263 2.23085 9.38281 2.27773 9.3824L2.63966 9.37964L2.75415 9.03628C2.76892 8.99181 2.83179 8.99181 2.84661 9.03628Z" fill="#F5F5F5"/>
<path d="M2.84661 10.8324L2.9611 11.1758L3.32304 11.1785C3.36991 11.179 3.38931 11.2387 3.35163 11.2665L3.06048 11.4816L3.1697 11.8267C3.18388 11.8713 3.13296 11.9083 3.09481 11.881L2.80038 11.6706L2.50595 11.881C2.4678 11.9083 2.417 11.8713 2.43107 11.8267L2.54028 11.4816L2.24913 11.2665C2.21146 11.2387 2.23085 11.179 2.27773 11.1785L2.63966 11.1758L2.75415 10.8324C2.76892 10.788 2.83179 10.788 2.84661 10.8324Z" fill="#F5F5F5"/>
<path d="M2.84661 12.6285L2.9611 12.9719L3.32304 12.9746C3.36991 12.975 3.38931 13.0348 3.35163 13.0626L3.06048 13.2777L3.1697 13.6227C3.18388 13.6674 3.13296 13.7044 3.09481 13.6771L2.80038 13.4666L2.50595 13.6771C2.4678 13.7044 2.417 13.6674 2.43107 13.6227L2.54028 13.2777L2.24913 13.0626C2.21146 13.0348 2.23085 12.975 2.27773 12.9746L2.63966 12.9719L2.75415 12.6285C2.76892 12.5841 2.83179 12.5841 2.84661 12.6285Z" fill="#F5F5F5"/>
<path d="M4.24078 6.35953L4.35527 6.70289L4.7172 6.70564C4.76408 6.70605 4.78347 6.76582 4.74579 6.79365L4.45464 7.00863L4.56386 7.35369C4.57804 7.39834 4.52712 7.43537 4.48898 7.40806L4.19455 7.19759L3.90011 7.40806C3.86197 7.43537 3.81117 7.39834 3.82523 7.35369L3.93445 7.00863L3.6433 6.79365C3.60562 6.76576 3.62502 6.70599 3.67189 6.70564L4.03382 6.70289L4.14832 6.35953C4.16308 6.31505 4.22595 6.31505 4.24078 6.35953Z" fill="#F5F5F5"/>
<path d="M4.24078 8.15562L4.35527 8.49898L4.7172 8.50174C4.76408 8.50215 4.78347 8.56185 4.74579 8.58975L4.45464 8.80478L4.56386 9.14984C4.57804 9.19449 4.52712 9.23152 4.48898 9.20422L4.19455 8.99375L3.90011 9.20422C3.86197 9.23146 3.81117 9.19449 3.82523 9.14984L3.93445 8.80478L3.6433 8.58975C3.60562 8.56185 3.62502 8.50215 3.67189 8.50174L4.03382 8.49898L4.14832 8.15562C4.16308 8.11121 4.22595 8.11121 4.24078 8.15562Z" fill="#F5F5F5"/>
<path d="M4.24078 9.95181L4.35527 10.2952L4.7172 10.2979C4.76408 10.2983 4.78347 10.358 4.74579 10.3859L4.45464 10.601L4.56386 10.946C4.57804 10.9907 4.52712 11.0277 4.48898 11.0004L4.19455 10.7899L3.90011 11.0004C3.86197 11.0277 3.81117 10.9907 3.82523 10.946L3.93445 10.601L3.6433 10.3859C3.60562 10.358 3.62502 10.2983 3.67189 10.2979L4.03382 10.2952L4.14832 9.95181C4.16308 9.90734 4.22595 9.90734 4.24078 9.95181Z" fill="#F5F5F5"/>
<path d="M4.24078 11.748L4.35527 12.0913L4.7172 12.0941C4.76408 12.0945 4.78347 12.1542 4.74579 12.1821L4.45464 12.3971L4.56386 12.7422C4.57804 12.7868 4.52712 12.8239 4.48898 12.7966L4.19455 12.5861L3.90011 12.7966C3.86197 12.8238 3.81117 12.7868 3.82523 12.7422L3.93445 12.3971L3.6433 12.1821C3.60562 12.1543 3.62502 12.0945 3.67189 12.0941L4.03382 12.0913L4.14832 11.748C4.16308 11.7035 4.22595 11.7035 4.24078 11.748Z" fill="#F5F5F5"/>
<path d="M4.24078 13.5441L4.35527 13.8874L4.7172 13.8902C4.76408 13.8906 4.78347 13.9503 4.74579 13.9782L4.45464 14.1932L4.56386 14.5383C4.57804 14.5829 4.52712 14.6199 4.48898 14.5926L4.19455 14.3822L3.90011 14.5926C3.86197 14.6199 3.81117 14.5829 3.82523 14.5383L3.93445 14.1932L3.6433 13.9782C3.60562 13.9503 3.62502 13.8906 3.67189 13.8902L4.03382 13.8874L4.14832 13.5441C4.16308 13.4996 4.22595 13.4996 4.24078 13.5441Z" fill="#F5F5F5"/>
<path d="M5.63488 7.2401L5.74937 7.58346L6.11131 7.58621C6.15818 7.58662 6.17758 7.64639 6.1399 7.67422L5.84875 7.88926L5.95797 8.23432C5.97215 8.27897 5.92123 8.316 5.88309 8.2887L5.58865 8.07823L5.29422 8.2887C5.25607 8.31595 5.20527 8.27897 5.21934 8.23432L5.32855 7.88926L5.0374 7.67422C4.99973 7.64633 5.01912 7.58662 5.066 7.58621L5.42793 7.58346L5.54242 7.2401C5.55713 7.19568 5.62006 7.19568 5.63488 7.2401Z" fill="#F5F5F5"/>
<path d="M5.63488 9.03628L5.74937 9.37964L6.11131 9.3824C6.15818 9.38281 6.17758 9.44257 6.1399 9.47041L5.84875 9.68544L5.95797 10.0305C5.97215 10.0752 5.92123 10.1122 5.88309 10.0849L5.58865 9.87441L5.29422 10.0849C5.25607 10.1121 5.20527 10.0752 5.21934 10.0305L5.32855 9.68544L5.0374 9.47041C4.99973 9.44263 5.01912 9.38281 5.066 9.3824L5.42793 9.37964L5.54242 9.03628C5.55713 8.99181 5.62006 8.99181 5.63488 9.03628Z" fill="#F5F5F5"/>
<path d="M5.63488 10.8324L5.74937 11.1758L6.11131 11.1785C6.15818 11.179 6.17758 11.2387 6.1399 11.2665L5.84875 11.4816L5.95797 11.8267C5.97215 11.8713 5.92123 11.9083 5.88309 11.881L5.58865 11.6706L5.29422 11.881C5.25607 11.9083 5.20527 11.8713 5.21934 11.8267L5.32855 11.4816L5.0374 11.2665C4.99973 11.2387 5.01912 11.179 5.066 11.1785L5.42793 11.1758L5.54242 10.8324C5.55713 10.788 5.62006 10.788 5.63488 10.8324Z" fill="#F5F5F5"/>
<path d="M5.63488 12.6285L5.74937 12.9719L6.11131 12.9746C6.15818 12.975 6.17758 13.0348 6.1399 13.0626L5.84875 13.2777L5.95797 13.6227C5.97215 13.6674 5.92123 13.7044 5.88309 13.6771L5.58865 13.4666L5.29422 13.6771C5.25607 13.7044 5.20527 13.6674 5.21934 13.6227L5.32855 13.2777L5.0374 13.0626C4.99973 13.0348 5.01912 12.975 5.066 12.9746L5.42793 12.9719L5.54242 12.6285C5.55713 12.5841 5.62006 12.5841 5.63488 12.6285Z" fill="#F5F5F5"/>
<path d="M7.02899 6.35952L7.14348 6.70288L7.50541 6.70563C7.55229 6.70604 7.57168 6.76581 7.53401 6.79364L7.24285 7.00862L7.35207 7.35368C7.36625 7.39833 7.31533 7.43536 7.27719 7.40805L6.9827 7.19764L6.68826 7.40811C6.65012 7.43542 6.59932 7.39839 6.61338 7.35374L6.7226 7.00868L6.43144 6.7937C6.39377 6.76581 6.41316 6.70604 6.46004 6.70569L6.82197 6.70294L6.93647 6.35958C6.95129 6.31505 7.01416 6.31505 7.02899 6.35952Z" fill="#F5F5F5"/>
<path d="M7.02899 8.15562L7.14348 8.49898L7.50541 8.50174C7.55229 8.50215 7.57168 8.56185 7.53401 8.58975L7.24285 8.80478L7.35207 9.14984C7.36625 9.19449 7.31533 9.23152 7.27719 9.20422L6.9827 8.99375L6.68826 9.20422C6.65012 9.23146 6.59932 9.19449 6.61338 9.14984L6.7226 8.80478L6.43144 8.58975C6.39377 8.56185 6.41316 8.50215 6.46004 8.50174L6.82197 8.49898L6.93647 8.15562C6.95129 8.11121 7.01416 8.11121 7.02899 8.15562Z" fill="#F5F5F5"/>
<path d="M7.02899 9.95182L7.14348 10.2952L7.50541 10.2979C7.55229 10.2983 7.57168 10.358 7.53401 10.3859L7.24285 10.601L7.35207 10.946C7.36625 10.9907 7.31533 11.0277 7.27719 11.0004L6.9827 10.7899L6.68826 11.0004C6.65012 11.0276 6.59932 10.9906 6.61338 10.946L6.7226 10.6009L6.43144 10.3859C6.39377 10.358 6.41316 10.2983 6.46004 10.2979L6.82197 10.2951L6.93647 9.95176C6.95129 9.90735 7.01416 9.90735 7.02899 9.95182Z" fill="#F5F5F5"/>
<path d="M7.02899 11.748L7.14348 12.0913L7.50541 12.0941C7.55229 12.0945 7.57168 12.1542 7.53401 12.1821L7.24285 12.3971L7.35207 12.7422C7.36625 12.7868 7.31533 12.8239 7.27719 12.7966L6.9827 12.5861L6.68826 12.7966C6.65012 12.8238 6.59932 12.7868 6.61338 12.7422L6.7226 12.3971L6.43144 12.1821C6.39377 12.1543 6.41316 12.0945 6.46004 12.0941L6.82197 12.0913L6.93647 11.748C6.95129 11.7035 7.01416 11.7035 7.02899 11.748Z" fill="#F5F5F5"/>
<path d="M7.02899 13.5441L7.14348 13.8874L7.50541 13.8902C7.55229 13.8906 7.57168 13.9503 7.53401 13.9782L7.24285 14.1932L7.35207 14.5383C7.36625 14.5829 7.31533 14.6199 7.27719 14.5926L6.9827 14.3822L6.68826 14.5926C6.65012 14.6199 6.59932 14.5829 6.61338 14.5383L6.7226 14.1932L6.43144 13.9782C6.39377 13.9503 6.41316 13.8906 6.46004 13.8902L6.82197 13.8874L6.93647 13.5441C6.95129 13.4996 7.01416 13.4996 7.02899 13.5441Z" fill="#F5F5F5"/>
<path d="M8.42302 7.2401L8.53751 7.58346L8.89944 7.58621C8.94632 7.58662 8.96571 7.64639 8.92804 7.67422L8.63689 7.88926L8.74611 8.23432C8.76029 8.27897 8.70937 8.316 8.67122 8.2887L8.37679 8.07823L8.08236 8.2887C8.04422 8.31595 7.99342 8.27897 8.00748 8.23432L8.1167 7.88926L7.82555 7.67422C7.78787 7.64633 7.80727 7.58662 7.85414 7.58621L8.21607 7.58346L8.33056 7.2401C8.34539 7.19568 8.4082 7.19568 8.42302 7.2401Z" fill="#F5F5F5"/>
<path d="M8.42302 9.03628L8.53751 9.37964L8.89944 9.3824C8.94632 9.38281 8.96571 9.44257 8.92804 9.47041L8.63689 9.68544L8.74611 10.0305C8.76029 10.0752 8.70937 10.1122 8.67122 10.0849L8.37679 9.87441L8.08236 10.0849C8.04422 10.1121 7.99342 10.0752 8.00748 10.0305L8.1167 9.68544L7.82555 9.47041C7.78787 9.44263 7.80727 9.38281 7.85414 9.3824L8.21607 9.37964L8.33056 9.03628C8.34539 8.99181 8.4082 8.99181 8.42302 9.03628Z" fill="#F5F5F5"/>
<path d="M8.42302 10.8324L8.53751 11.1758L8.89944 11.1785C8.94632 11.179 8.96571 11.2387 8.92804 11.2665L8.63689 11.4816L8.74611 11.8267C8.76029 11.8713 8.70937 11.9083 8.67122 11.881L8.37679 11.6706L8.08236 11.881C8.04422 11.9083 7.99342 11.8713 8.00748 11.8267L8.1167 11.4816L7.82555 11.2665C7.78787 11.2387 7.80727 11.179 7.85414 11.1785L8.21607 11.1758L8.33056 10.8324C8.34539 10.788 8.4082 10.788 8.42302 10.8324Z" fill="#F5F5F5"/>
<path d="M8.42302 12.6285L8.53751 12.9719L8.89944 12.9746C8.94632 12.975 8.96571 13.0348 8.92804 13.0626L8.63689 13.2777L8.74611 13.6227C8.76029 13.6674 8.70937 13.7044 8.67122 13.6771L8.37679 13.4666L8.08236 13.6771C8.04422 13.7044 7.99342 13.6674 8.00748 13.6227L8.1167 13.2777L7.82555 13.0626C7.78787 13.0348 7.80727 12.975 7.85414 12.9746L8.21607 12.9719L8.33056 12.6285C8.34539 12.5841 8.4082 12.5841 8.42302 12.6285Z" fill="#F5F5F5"/>
<path d="M9.81725 6.35953L9.93174 6.70289L10.2937 6.70564C10.3405 6.70605 10.3599 6.76582 10.3223 6.79365L10.0311 7.00863L10.1403 7.35369C10.1545 7.39834 10.1036 7.43537 10.0655 7.40806L9.77102 7.19759L9.47659 7.40806C9.43844 7.43537 9.38764 7.39834 9.40171 7.35369L9.51092 7.00863L9.21977 6.79365C9.1821 6.76576 9.20149 6.70599 9.24837 6.70564L9.6103 6.70289L9.72479 6.35953C9.7395 6.31505 9.80242 6.31505 9.81725 6.35953Z" fill="#F5F5F5"/>
<path d="M9.81725 8.15562L9.93174 8.49898L10.2937 8.50174C10.3405 8.50215 10.3599 8.56185 10.3223 8.58975L10.0311 8.80478L10.1403 9.14984C10.1545 9.19449 10.1036 9.23152 10.0655 9.20422L9.77102 8.99375L9.47659 9.20422C9.43844 9.23146 9.38764 9.19449 9.40171 9.14984L9.51092 8.80478L9.21977 8.58975C9.1821 8.56185 9.20149 8.50215 9.24837 8.50174L9.6103 8.49898L9.72479 8.15562C9.7395 8.11121 9.80242 8.11121 9.81725 8.15562Z" fill="#F5F5F5"/>
<path d="M9.81725 9.95181L9.93174 10.2952L10.2937 10.2979C10.3405 10.2983 10.3599 10.358 10.3223 10.3859L10.0311 10.601L10.1403 10.946C10.1545 10.9907 10.1036 11.0277 10.0655 11.0004L9.77102 10.7899L9.47659 11.0004C9.43844 11.0277 9.38764 10.9907 9.40171 10.946L9.51092 10.601L9.21977 10.3859C9.1821 10.358 9.20149 10.2983 9.24837 10.2979L9.6103 10.2952L9.72479 9.95181C9.7395 9.90734 9.80242 9.90734 9.81725 9.95181Z" fill="#F5F5F5"/>
<path d="M9.81725 11.748L9.93174 12.0913L10.2937 12.0941C10.3405 12.0945 10.3599 12.1542 10.3223 12.1821L10.0311 12.3971L10.1403 12.7422C10.1545 12.7868 10.1036 12.8239 10.0655 12.7966L9.77102 12.5861L9.47659 12.7966C9.43844 12.8238 9.38764 12.7868 9.40171 12.7422L9.51092 12.3971L9.21977 12.1821C9.1821 12.1543 9.20149 12.0945 9.24837 12.0941L9.6103 12.0913L9.72479 11.748C9.7395 11.7035 9.80242 11.7035 9.81725 11.748Z" fill="#F5F5F5"/>
<path d="M9.81725 13.5441L9.93174 13.8874L10.2937 13.8902C10.3405 13.8906 10.3599 13.9503 10.3223 13.9782L10.0311 14.1932L10.1403 14.5383C10.1545 14.5829 10.1036 14.6199 10.0655 14.5926L9.77102 14.3822L9.47659 14.5926C9.43844 14.6199 9.38764 14.5829 9.40171 14.5383L9.51092 14.1932L9.21977 13.9782C9.1821 13.9503 9.20149 13.8906 9.24837 13.8902L9.6103 13.8874L9.72479 13.5441C9.7395 13.4996 9.80242 13.4996 9.81725 13.5441Z" fill="#F5F5F5"/>
<path d="M11.2114 7.2401L11.3259 7.58346L11.6878 7.58621C11.7347 7.58662 11.7541 7.64639 11.7164 7.67422L11.4253 7.88926L11.5345 8.23432C11.5487 8.27897 11.4978 8.316 11.4596 8.2887L11.1652 8.07823L10.8708 8.2887C10.8326 8.31595 10.7818 8.27897 10.7959 8.23432L10.9051 7.88926L10.6139 7.67422C10.5763 7.64633 10.5957 7.58662 10.6425 7.58621L11.0045 7.58346L11.119 7.2401C11.1337 7.19568 11.1966 7.19568 11.2114 7.2401Z" fill="#F5F5F5"/>
<path d="M11.2114 9.03628L11.3259 9.37964L11.6878 9.3824C11.7347 9.38281 11.7541 9.44257 11.7164 9.47041L11.4253 9.68544L11.5345 10.0305C11.5487 10.0752 11.4978 10.1122 11.4596 10.0849L11.1652 9.87441L10.8708 10.0849C10.8326 10.1121 10.7818 10.0752 10.7959 10.0305L10.9051 9.68544L10.6139 9.47041C10.5763 9.44263 10.5957 9.38281 10.6425 9.3824L11.0045 9.37964L11.119 9.03628C11.1337 8.99181 11.1966 8.99181 11.2114 9.03628Z" fill="#F5F5F5"/>
<path d="M11.2114 10.8324L11.3259 11.1758L11.6878 11.1785C11.7347 11.179 11.7541 11.2387 11.7164 11.2665L11.4253 11.4816L11.5345 11.8267C11.5487 11.8713 11.4978 11.9083 11.4596 11.881L11.1652 11.6706L10.8708 11.881C10.8326 11.9083 10.7818 11.8713 10.7959 11.8267L10.9051 11.4816L10.6139 11.2665C10.5763 11.2387 10.5957 11.179 10.6425 11.1785L11.0045 11.1758L11.119 10.8324C11.1337 10.788 11.1966 10.788 11.2114 10.8324Z" fill="#F5F5F5"/>
<path d="M11.2114 12.6285L11.3259 12.9719L11.6878 12.9746C11.7347 12.975 11.7541 13.0348 11.7164 13.0626L11.4253 13.2777L11.5345 13.6227C11.5487 13.6674 11.4978 13.7044 11.4596 13.6771L11.1652 13.4666L10.8708 13.6771C10.8326 13.7044 10.7818 13.6674 10.7959 13.6227L10.9051 13.2777L10.6139 13.0626C10.5763 13.0348 10.5957 12.975 10.6425 12.9746L11.0045 12.9719L11.119 12.6285C11.1337 12.5841 11.1966 12.5841 11.2114 12.6285Z" fill="#F5F5F5"/>
<path d="M12.6055 6.35953L12.72 6.70289L13.082 6.70564C13.1288 6.70605 13.1482 6.76582 13.1105 6.79365L12.8194 7.00863L12.9286 7.35369C12.9428 7.39834 12.8919 7.43537 12.8537 7.40806L12.5593 7.19759L12.2649 7.40806C12.2267 7.43537 12.1759 7.39834 12.19 7.35369L12.2992 7.00863L12.008 6.79365C11.9704 6.76576 11.9898 6.70599 12.0366 6.70564L12.3986 6.70289L12.5131 6.35953C12.5278 6.31505 12.5906 6.31505 12.6055 6.35953Z" fill="#F5F5F5"/>
<path d="M12.6055 8.15562L12.72 8.49898L13.082 8.50174C13.1288 8.50215 13.1482 8.56185 13.1105 8.58975L12.8194 8.80478L12.9286 9.14984C12.9428 9.19449 12.8919 9.23152 12.8537 9.20422L12.5593 8.99375L12.2649 9.20422C12.2267 9.23146 12.1759 9.19449 12.19 9.14984L12.2992 8.80478L12.008 8.58975C11.9704 8.56185 11.9898 8.50215 12.0366 8.50174L12.3986 8.49898L12.5131 8.15562C12.5278 8.11121 12.5906 8.11121 12.6055 8.15562Z" fill="#F5F5F5"/>
<path d="M12.6055 9.95181L12.72 10.2952L13.082 10.2979C13.1288 10.2983 13.1482 10.358 13.1105 10.3859L12.8194 10.601L12.9286 10.946C12.9428 10.9907 12.8919 11.0277 12.8537 11.0004L12.5593 10.7899L12.2649 11.0004C12.2267 11.0277 12.1759 10.9907 12.19 10.946L12.2992 10.601L12.008 10.3859C11.9704 10.358 11.9898 10.2983 12.0366 10.2979L12.3986 10.2952L12.5131 9.95181C12.5278 9.90734 12.5906 9.90734 12.6055 9.95181Z" fill="#F5F5F5"/>
<path d="M12.6055 11.748L12.72 12.0913L13.082 12.0941C13.1288 12.0945 13.1482 12.1542 13.1105 12.1821L12.8194 12.3971L12.9286 12.7422C12.9428 12.7868 12.8919 12.8239 12.8537 12.7966L12.5593 12.5861L12.2649 12.7966C12.2267 12.8238 12.1759 12.7868 12.19 12.7422L12.2992 12.3971L12.008 12.1821C11.9704 12.1543 11.9898 12.0945 12.0366 12.0941L12.3986 12.0913L12.5131 11.748C12.5278 11.7035 12.5906 11.7035 12.6055 11.748Z" fill="#F5F5F5"/>
<path d="M12.6055 13.5441L12.72 13.8874L13.082 13.8902C13.1288 13.8906 13.1482 13.9503 13.1105 13.9782L12.8194 14.1932L12.9286 14.5383C12.9428 14.5829 12.8919 14.6199 12.8537 14.5926L12.5593 14.3822L12.2649 14.5926C12.2267 14.6199 12.1759 14.5829 12.19 14.5383L12.2992 14.1932L12.008 13.9782C11.9704 13.9503 11.9898 13.8906 12.0366 13.8902L12.3986 13.8874L12.5131 13.5441C12.5278 13.4996 12.5906 13.4996 12.6055 13.5441Z" fill="#F5F5F5"/>
</svg>
