<svg width="55" height="9" viewBox="0 0 55 9" fill="none" xmlns="http://www.w3.org/2000/svg">
<path fill-rule="evenodd" clip-rule="evenodd" d="M0.808563 0.150309H3.12976C3.56261 0.150309 3.99518 0.189684 4.38837 0.248748C6.43394 0.543784 8.04694 1.62577 8.04694 4.49738C8.04694 7.34959 6.43394 8.4507 4.38837 8.72605C3.99518 8.78511 3.56233 8.80451 3.12976 8.80451H0.808563V0.150309ZM53.444 1.46798C53.7584 1.46798 53.9947 1.23201 53.9947 0.877912C53.9947 0.524097 53.7584 0.268151 53.444 0.268151C53.129 0.268151 52.8927 0.523811 52.8927 0.877912C52.8927 1.23201 53.129 1.46798 53.444 1.46798ZM53.444 0.130621C53.5421 0.130584 53.6393 0.149887 53.73 0.187428C53.8207 0.22497 53.9031 0.280014 53.9725 0.349414C54.0419 0.418814 54.0969 0.501209 54.1345 0.591891C54.172 0.682574 54.1913 0.779766 54.1913 0.877912C54.1914 0.976082 54.1721 1.0733 54.1346 1.16402C54.097 1.25474 54.042 1.33717 53.9726 1.4066C53.9032 1.47603 53.8208 1.5311 53.7301 1.56865C53.6394 1.60621 53.5422 1.62553 53.444 1.62549C53.3458 1.62549 53.2486 1.60616 53.158 1.56859C53.0673 1.53103 52.9849 1.47598 52.9155 1.40657C52.8461 1.33717 52.791 1.25477 52.7535 1.16409C52.7159 1.0734 52.6966 0.97621 52.6966 0.878056C52.6966 0.779901 52.7159 0.682707 52.7535 0.592024C52.791 0.501341 52.8461 0.418944 52.9155 0.349538C52.9849 0.280132 53.0673 0.225078 53.158 0.187515C53.2486 0.149953 53.3458 0.130621 53.444 0.130621ZM53.444 0.996041L53.4043 0.936977H53.3062V1.29108H53.1484V0.445345H53.4828C53.6794 0.445345 53.7978 0.524098 53.7978 0.701006C53.7978 0.838537 53.6991 0.917289 53.5616 0.936977L53.7978 1.29108H53.6206L53.444 0.996041ZM53.444 0.563474H53.4634C53.5419 0.563474 53.6206 0.583162 53.6206 0.681603C53.6206 0.799731 53.5421 0.819133 53.4634 0.819133H53.3065V0.563474H53.444ZM47.9758 3.82828C48.625 3.74952 49.1557 3.47417 49.1557 2.64813C49.1557 1.86146 48.6253 1.64489 47.9758 1.54674H46.7954V3.86794H47.3461C47.5627 3.86794 47.779 3.84796 47.9758 3.82828ZM47.9758 0.169998C49.5101 0.229062 50.9262 0.543785 50.9262 2.5106C50.9262 3.53352 50.2771 4.37926 49.1954 4.51679C49.6479 4.57585 49.9232 5.02839 50.0805 5.42187L51.4381 8.80451H49.5495L48.5268 6.09041C48.3696 5.69693 48.2321 5.46068 47.9761 5.32314C47.8386 5.24468 47.6223 5.20502 47.3464 5.20502H46.7957V8.80451H45.1042V0.150309H46.9332C47.2673 0.150309 47.6414 0.15031 47.9758 0.169998ZM32.2205 2.74657C32.4171 3.25789 32.5153 3.82856 32.5153 4.4777C32.5153 5.08746 32.4171 5.67753 32.2205 6.20854C31.6107 7.87974 30.1356 8.96202 28.11 8.96202C25.3956 8.96202 23.6645 7.11305 23.6645 4.47741C23.6645 1.8218 25.4347 0.0124922 28.11 0.0124922C30.1356 0.0124922 31.6107 1.07479 32.2205 2.74657ZM32.2205 0.917288L35.2105 8.80451H35.8397L39.1638 0.150309H37.3933L35.6234 4.71338L33.7353 0.150309H31.9258L32.2205 0.917288ZM39.5967 0.150309H44.6317V1.54674H41.3076V3.67106H44.3364V5.00813H41.3078V7.44746H44.6517V8.80451H39.597V0.150309H39.5967ZM4.38837 1.68455C4.09334 1.58611 3.77861 1.54674 3.46417 1.54674H2.50031V7.44746H3.46417C3.7789 7.44746 4.09362 7.3884 4.38837 7.29024C5.43099 6.91617 6.27672 5.95259 6.27672 4.4971C6.27701 3.04161 5.43099 2.03837 4.38837 1.68455ZM8.71576 0.150309H10.4269V8.80451H8.71576V0.150309ZM15.9148 2.45153C15.3247 2.07775 14.6955 1.70396 14.0267 1.62549C13.4169 1.54674 12.7678 1.72365 12.7678 2.58907C12.7678 4.08394 16.5051 3.45449 16.5051 6.34607C16.5051 8.23413 15.0102 9.15862 13.2991 8.96202C12.3746 8.86329 11.8436 8.58795 11.1157 8.0966V6.3261C11.6864 6.64111 12.5318 7.25058 13.2007 7.36871C13.9285 7.48684 14.7152 7.26999 14.7152 6.4836C14.7152 4.81183 10.9979 5.50005 10.9979 2.64785C10.9979 0.720408 12.4534 0.012207 13.9482 0.012207C14.6958 0.012207 15.3447 0.287554 15.915 0.798874V2.45153H15.9148ZM23.2316 7.9391C22.7987 8.49036 21.7761 8.80451 21.0876 8.86358C18.4323 9.04077 16.6621 7.56559 16.6621 4.63492C16.6621 1.68455 18.216 -0.0462866 21.0876 0.111218C21.658 0.130906 22.5825 0.327501 23.1922 0.838821V2.4912C22.4643 2.03894 21.717 1.72422 21.0876 1.70453C19.3371 1.64546 18.4323 2.74686 18.4323 4.51707C18.4323 6.28758 19.278 7.27055 21.0876 7.19209C21.7955 7.17268 22.8578 6.60202 23.2316 6.28758V7.9391Z" fill="black"/>
</svg>
