<svg width="40" height="40" viewBox="0 0 40 40" fill="none" xmlns="http://www.w3.org/2000/svg">
<path d="M20.0001 0.083252C8.95447 0.083252 0 9.03772 0 20.0834C0 29.99 7.21044 38.1944 16.6645 39.7831V24.2559H11.8399V18.6683H16.6645V14.5483C16.6645 9.76779 19.5843 7.16271 23.8494 7.16271C25.8921 7.16271 27.6476 7.31492 28.1572 7.38196V12.3788L25.1991 12.3803C22.88 12.3803 22.4329 13.482 22.4329 15.0994V18.6655H27.9664L27.2447 24.2531H22.4329V39.9167C32.3284 38.7124 40 30.299 40 20.0776C40 9.03772 31.0455 0.083252 20.0001 0.083252Z" fill="#F5CC37"/>
</svg>
