<svg width="197" height="122" viewBox="0 0 197 122" fill="none" xmlns="http://www.w3.org/2000/svg">
<path d="M5.016 23H1.632V6.2H7.128L12.24 19.232L17.304 6.2H22.8V23H19.44V9.656L14.112 23H10.32L5.016 9.68V23ZM26.8213 11.84C27.8453 10.816 29.4853 10.304 31.7413 10.304C33.9973 10.304 35.6373 10.816 36.6613 11.84C37.6853 12.864 38.1973 14.504 38.1973 16.76C38.1973 19.032 37.6853 20.68 36.6613 21.704C35.6373 22.712 33.9973 23.216 31.7413 23.216C29.4853 23.216 27.8453 22.712 26.8213 21.704C25.8133 20.68 25.3093 19.032 25.3093 16.76C25.3093 14.504 25.8133 12.864 26.8213 11.84ZM28.4533 16.76C28.4533 17.976 28.7093 18.864 29.2213 19.424C29.7493 19.984 30.5893 20.264 31.7413 20.264C32.8933 20.264 33.7253 19.984 34.2373 19.424C34.7653 18.864 35.0293 17.976 35.0293 16.76C35.0293 15.528 34.7653 14.64 34.2373 14.096C33.7253 13.536 32.8933 13.256 31.7413 13.256C30.5893 13.256 29.7493 13.536 29.2213 14.096C28.7093 14.64 28.4533 15.528 28.4533 16.76ZM40.4389 10.52H43.6069V17.888L49.8469 10.52H52.6069V23H49.4389V15.632L43.1989 23H40.4389V10.52ZM42.1189 5.432H44.6629C44.6629 6.072 44.8149 6.536 45.1189 6.824C45.4229 7.112 45.9109 7.256 46.5829 7.256C47.2709 7.256 47.7669 7.112 48.0709 6.824C48.3749 6.536 48.5269 6.072 48.5269 5.432H51.0709C51.0709 6.76 50.7109 7.752 49.9909 8.408C49.2709 9.064 48.1349 9.392 46.5829 9.392C45.0469 9.392 43.9189 9.064 43.1989 8.408C42.4789 7.752 42.1189 6.76 42.1189 5.432ZM64.3361 23H60.7601L68.3201 6.2H72.1121L79.6721 23H76.0961L74.7281 19.928H65.7041L64.3361 23ZM70.2161 9.752L67.1201 16.76H73.3121L70.2161 9.752ZM81.5014 23V10.52H84.6694V15.176H86.4214L89.9734 10.52H93.8374L89.0854 16.616L94.1734 23H90.2854L86.4214 18.128H84.6694V23H81.5014ZM95.9154 23V10.52H99.0834V15.176H100.835L104.387 10.52H108.251L103.499 16.616L108.587 23H104.699L100.835 18.128H99.0834V23H95.9154ZM114.179 23.216C112.563 23.216 111.371 22.912 110.603 22.304C109.851 21.68 109.475 20.688 109.475 19.328C109.475 17.936 109.891 16.944 110.723 16.352C111.555 15.744 112.899 15.44 114.755 15.44H118.499C118.435 14.592 118.171 13.984 117.707 13.616C117.259 13.232 116.555 13.04 115.595 13.04C114.043 13.04 113.131 13.592 112.859 14.696H109.739C109.931 13.16 110.499 12.048 111.443 11.36C112.387 10.656 113.811 10.304 115.715 10.304C117.795 10.304 119.307 10.736 120.251 11.6C121.195 12.448 121.667 13.824 121.667 15.728V23H118.499V21.824C117.587 22.752 116.147 23.216 114.179 23.216ZM112.643 19.184C112.643 20.048 113.419 20.48 114.971 20.48C116.059 20.48 116.875 20.288 117.419 19.904C117.979 19.504 118.339 18.888 118.499 18.056V17.768H115.595C113.627 17.768 112.643 18.24 112.643 19.184ZM123.125 10.52H126.485L129.797 18.824L133.061 10.52H136.445L129.101 29H125.717L128.093 23L123.125 10.52ZM138.173 23V10.52H141.341V15.272H147.173V10.52H150.341V23H147.173V18.248H141.341V23H138.173ZM152.07 13.472V10.52H164.358V13.472H159.798V23H156.63V13.472H152.07Z" fill="white"/>
<path d="M1.782 110V97.4H3.024V103.106H12.474V97.4H13.716V110H12.474V104.294H3.024V110H1.782ZM16.5119 105.32C16.5119 103.652 16.8839 102.434 17.6279 101.666C18.3719 100.898 19.5779 100.514 21.2459 100.514C22.9019 100.514 24.0899 100.898 24.8099 101.666C25.5419 102.434 25.9079 103.652 25.9079 105.32C25.9079 105.464 25.9019 105.572 25.8899 105.644H17.7179C17.7539 106.82 18.0539 107.684 18.6179 108.236C19.1819 108.788 20.0639 109.064 21.2639 109.064C22.9559 109.064 24.0239 108.47 24.4679 107.282H25.6919C25.4279 108.338 24.9119 109.076 24.1439 109.496C23.3879 109.916 22.4219 110.126 21.2459 110.126C19.5779 110.126 18.3719 109.748 17.6279 108.992C16.8839 108.224 16.5119 107 16.5119 105.32ZM21.2639 101.576C20.1239 101.576 19.2659 101.822 18.6899 102.314C18.1259 102.806 17.8079 103.61 17.7359 104.726H24.7199C24.6479 103.61 24.3359 102.806 23.7839 102.314C23.2319 101.822 22.3919 101.576 21.2639 101.576ZM28.3593 112.934H27.1893V108.884H28.4133C28.7133 108.704 28.9413 108.464 29.0973 108.164C29.2533 107.864 29.3973 107.3 29.5293 106.472C29.6613 105.632 29.7633 104.45 29.8353 102.926L29.9433 100.64H37.3233V108.884H39.0873V112.934H37.9173V110H28.3593V112.934ZM29.9253 108.884H36.1533V101.756H31.0593L31.0053 102.998C30.8613 106.106 30.5013 108.068 29.9253 108.884ZM44.6757 110.126C43.4157 110.126 42.4857 109.91 41.8857 109.478C41.2977 109.046 41.0037 108.356 41.0037 107.408C41.0037 106.424 41.3337 105.722 41.9937 105.302C42.6537 104.87 43.7217 104.654 45.1977 104.654H48.7257V104.384C48.7257 103.4 48.4677 102.686 47.9517 102.242C47.4477 101.798 46.6317 101.576 45.5037 101.576C44.5917 101.576 43.8897 101.726 43.3977 102.026C42.9177 102.314 42.5937 102.776 42.4257 103.412H41.2377C41.4417 102.404 41.8797 101.672 42.5517 101.216C43.2357 100.748 44.2377 100.514 45.5577 100.514C47.0697 100.514 48.1677 100.82 48.8517 101.432C49.5477 102.044 49.8957 103.022 49.8957 104.366V110H48.7257V108.416C48.0417 109.556 46.6917 110.126 44.6757 110.126ZM42.1917 107.372C42.1917 107.972 42.4077 108.404 42.8397 108.668C43.2837 108.932 43.9737 109.064 44.9097 109.064C46.1457 109.064 47.0577 108.836 47.6457 108.38C48.2457 107.924 48.6057 107.186 48.7257 106.166V105.572H45.4497C44.3097 105.572 43.4817 105.716 42.9657 106.004C42.4497 106.292 42.1917 106.748 42.1917 107.372ZM58.0752 110H53.0532V100.64H57.6612C58.8132 100.64 59.6472 100.832 60.1632 101.216C60.6912 101.6 60.9552 102.218 60.9552 103.07C60.9552 104.066 60.5892 104.75 59.8572 105.122C60.9132 105.446 61.4412 106.22 61.4412 107.444C61.4412 108.344 61.1772 108.998 60.6492 109.406C60.1212 109.802 59.2632 110 58.0752 110ZM57.9672 105.662H54.2412V108.956H57.9672C58.7952 108.956 59.3832 108.83 59.7312 108.578C60.0792 108.314 60.2532 107.888 60.2532 107.3C60.2532 106.724 60.0732 106.31 59.7132 106.058C59.3652 105.794 58.7832 105.662 57.9672 105.662ZM54.2412 104.744H57.5172C58.3212 104.744 58.8972 104.624 59.2452 104.384C59.6052 104.144 59.7852 103.754 59.7852 103.214C59.7852 102.686 59.6052 102.302 59.2452 102.062C58.8972 101.81 58.3272 101.684 57.5352 101.684H54.2412V104.744ZM64.1098 110V100.64H65.2978V104.762H71.7778V100.64H72.9658V110H71.7778V105.878H65.2978V110H64.1098ZM77.2304 110H76.1684V100.64H77.3564V108.128L83.9624 100.64H85.0244V110H83.8364V102.494L77.2304 110ZM87.633 105.32C87.633 103.652 88.005 102.434 88.749 101.666C89.493 100.898 90.699 100.514 92.367 100.514C94.023 100.514 95.211 100.898 95.931 101.666C96.663 102.434 97.029 103.652 97.029 105.32C97.029 105.464 97.023 105.572 97.011 105.644H88.839C88.875 106.82 89.175 107.684 89.739 108.236C90.303 108.788 91.185 109.064 92.385 109.064C94.077 109.064 95.145 108.47 95.589 107.282H96.813C96.549 108.338 96.033 109.076 95.265 109.496C94.509 109.916 93.543 110.126 92.367 110.126C90.699 110.126 89.493 109.748 88.749 108.992C88.005 108.224 87.633 107 87.633 105.32ZM92.385 101.576C91.245 101.576 90.387 101.822 89.811 102.314C89.247 102.806 88.929 103.61 88.857 104.726H95.841C95.769 103.61 95.457 102.806 94.905 102.314C94.353 101.822 93.513 101.576 92.385 101.576ZM104.68 110V100.64H113.536V110H112.348V101.756H105.868V110H104.68ZM115.965 110V108.83H116.523C116.847 108.83 117.099 108.698 117.279 108.434C117.459 108.17 117.615 107.606 117.747 106.742C117.891 105.866 118.005 104.594 118.089 102.926L118.197 100.64H125.577V110H124.389V101.756H119.295L119.241 102.998C119.157 104.894 119.001 106.358 118.773 107.39C118.557 108.41 118.275 109.1 117.927 109.46C117.591 109.82 117.135 110 116.559 110H115.965ZM132.092 110.126C130.832 110.126 129.902 109.91 129.302 109.478C128.714 109.046 128.42 108.356 128.42 107.408C128.42 106.424 128.75 105.722 129.41 105.302C130.07 104.87 131.138 104.654 132.614 104.654H136.142V104.384C136.142 103.4 135.884 102.686 135.368 102.242C134.864 101.798 134.048 101.576 132.92 101.576C132.008 101.576 131.306 101.726 130.814 102.026C130.334 102.314 130.01 102.776 129.842 103.412H128.654C128.858 102.404 129.296 101.672 129.968 101.216C130.652 100.748 131.654 100.514 132.974 100.514C134.486 100.514 135.584 100.82 136.268 101.432C136.964 102.044 137.312 103.022 137.312 104.366V110H136.142V108.416C135.458 109.556 134.108 110.126 132.092 110.126ZM129.608 107.372C129.608 107.972 129.824 108.404 130.256 108.668C130.7 108.932 131.39 109.064 132.326 109.064C133.562 109.064 134.474 108.836 135.062 108.38C135.662 107.924 136.022 107.186 136.142 106.166V105.572H132.866C131.726 105.572 130.898 105.716 130.382 106.004C129.866 106.292 129.608 106.748 129.608 107.372ZM148.396 101.756H144.346V110H143.158V101.756H139.108V100.64H148.396V101.756ZM149.719 105.32C149.719 103.652 150.091 102.434 150.835 101.666C151.579 100.898 152.785 100.514 154.453 100.514C156.109 100.514 157.297 100.898 158.017 101.666C158.749 102.434 159.115 103.652 159.115 105.32C159.115 105.464 159.109 105.572 159.097 105.644H150.925C150.961 106.82 151.261 107.684 151.825 108.236C152.389 108.788 153.271 109.064 154.471 109.064C156.163 109.064 157.231 108.47 157.675 107.282H158.899C158.635 108.338 158.119 109.076 157.351 109.496C156.595 109.916 155.629 110.126 154.453 110.126C152.785 110.126 151.579 109.748 150.835 108.992C150.091 108.224 149.719 107 149.719 105.32ZM154.471 101.576C153.331 101.576 152.473 101.822 151.897 102.314C151.333 102.806 151.015 103.61 150.943 104.726H157.927C157.855 103.61 157.543 102.806 156.991 102.314C156.439 101.822 155.599 101.576 154.471 101.576ZM160.451 110L164.231 105.212L160.667 100.64H162.089L165.221 104.672H167.039V100.64H168.209V104.672H170.027L173.159 100.64H174.581L171.017 105.212L174.779 110H173.339L170.027 105.788H168.209V110H167.039V105.788H165.221L161.909 110H160.451ZM178.094 110H177.032V100.64H178.22V108.128L184.826 100.64H185.888V110H184.7V102.494L178.094 110Z" fill="white"/>
<path d="M1.782 74V61.4H3.78L9.162 72.686L14.526 61.4H16.524V74H15.282V62.57L9.9 74H8.424L3.024 62.57V74H1.782ZM24.0588 64.514C25.7148 64.514 26.9148 64.898 27.6588 65.666C28.4148 66.422 28.7928 67.64 28.7928 69.32C28.7928 71 28.4148 72.224 27.6588 72.992C26.9148 73.748 25.7148 74.126 24.0588 74.126C22.3908 74.126 21.1788 73.748 20.4228 72.992C19.6788 72.224 19.3068 71 19.3068 69.32C19.3068 67.64 19.6788 66.422 20.4228 65.666C21.1788 64.898 22.3908 64.514 24.0588 64.514ZM20.4768 69.32C20.4768 70.604 20.7588 71.54 21.3228 72.128C21.8988 72.716 22.8108 73.01 24.0588 73.01C25.3068 73.01 26.2128 72.716 26.7768 72.128C27.3408 71.54 27.6228 70.604 27.6228 69.32C27.6228 68.024 27.3408 67.088 26.7768 66.512C26.2128 65.924 25.3068 65.63 24.0588 65.63C22.8108 65.63 21.8988 65.924 21.3228 66.512C20.7588 67.088 20.4768 68.024 20.4768 69.32ZM30.9289 74L33.5929 70.562C32.6929 70.454 32.0389 70.178 31.6309 69.734C31.2229 69.278 31.0189 68.594 31.0189 67.682C31.0189 66.614 31.2949 65.84 31.8469 65.36C32.4109 64.88 33.3169 64.64 34.5649 64.64H39.1729V74H37.9849V70.598H34.9789L32.3509 74H30.9289ZM32.2069 67.682C32.2069 68.342 32.3929 68.81 32.7649 69.086C33.1369 69.35 33.7609 69.482 34.6369 69.482H37.9849V65.756H34.6369C33.7849 65.756 33.1669 65.906 32.7829 66.206C32.3989 66.506 32.2069 66.998 32.2069 67.682ZM50.3622 74L46.2942 64.64H47.5722L50.9922 72.47L54.4302 64.64H55.7082L49.6782 78.5H48.4002L50.3622 74ZM61.5617 70.598C60.0257 70.598 58.9337 70.316 58.2857 69.752C57.6497 69.188 57.3317 68.276 57.3317 67.016V64.64H58.5197V67.016C58.5197 67.892 58.7597 68.522 59.2397 68.906C59.7197 69.29 60.5417 69.482 61.7057 69.482C62.3297 69.482 63.2357 69.41 64.4237 69.266V64.64H65.6117V74H64.4237V70.382C63.2357 70.526 62.2817 70.598 61.5617 70.598ZM68.2268 69.32C68.2268 67.652 68.5988 66.434 69.3428 65.666C70.0868 64.898 71.2928 64.514 72.9608 64.514C74.6168 64.514 75.8048 64.898 76.5248 65.666C77.2568 66.434 77.6228 67.652 77.6228 69.32C77.6228 69.464 77.6168 69.572 77.6048 69.644H69.4328C69.4688 70.82 69.7688 71.684 70.3328 72.236C70.8968 72.788 71.7788 73.064 72.9788 73.064C74.6708 73.064 75.7388 72.47 76.1828 71.282H77.4068C77.1428 72.338 76.6268 73.076 75.8588 73.496C75.1028 73.916 74.1368 74.126 72.9608 74.126C71.2928 74.126 70.0868 73.748 69.3428 72.992C68.5988 72.224 68.2268 71 68.2268 69.32ZM72.9788 65.576C71.8388 65.576 70.9808 65.822 70.4048 66.314C69.8408 66.806 69.5228 67.61 69.4508 68.726H76.4348C76.3628 67.61 76.0508 66.806 75.4988 66.314C74.9468 65.822 74.1068 65.576 72.9788 65.576ZM70.4768 62.894C70.3568 62.762 70.2968 62.546 70.2968 62.246C70.2968 61.946 70.3628 61.73 70.4948 61.598C70.6268 61.466 70.8428 61.4 71.1428 61.4C71.7188 61.4 72.0068 61.682 72.0068 62.246C72.0068 62.546 71.9348 62.762 71.7908 62.894C71.6588 63.026 71.4428 63.092 71.1428 63.092C70.8308 63.092 70.6088 63.026 70.4768 62.894ZM74.0768 62.894C73.9448 62.762 73.8788 62.546 73.8788 62.246C73.8788 61.946 73.9448 61.73 74.0768 61.598C74.2088 61.466 74.4248 61.4 74.7248 61.4C75.0248 61.4 75.2408 61.466 75.3728 61.598C75.5048 61.73 75.5708 61.946 75.5708 62.246C75.5708 62.546 75.5048 62.762 75.3728 62.894C75.2408 63.026 75.0248 63.092 74.7248 63.092C74.4248 63.092 74.2088 63.026 74.0768 62.894ZM88.2264 65.756H84.1764V74H82.9884V65.756H78.9384V64.64H88.2264V65.756ZM90.3715 74V64.64H91.5595V68.762H98.0395V64.64H99.2275V74H98.0395V69.878H91.5595V74H90.3715ZM105.742 74.126C104.482 74.126 103.552 73.91 102.952 73.478C102.364 73.046 102.07 72.356 102.07 71.408C102.07 70.424 102.4 69.722 103.06 69.302C103.72 68.87 104.788 68.654 106.264 68.654H109.792V68.384C109.792 67.4 109.534 66.686 109.018 66.242C108.514 65.798 107.698 65.576 106.57 65.576C105.658 65.576 104.956 65.726 104.464 66.026C103.984 66.314 103.66 66.776 103.492 67.412H102.304C102.508 66.404 102.946 65.672 103.618 65.216C104.302 64.748 105.304 64.514 106.624 64.514C108.136 64.514 109.234 64.82 109.918 65.432C110.614 66.044 110.962 67.022 110.962 68.366V74H109.792V72.416C109.108 73.556 107.758 74.126 105.742 74.126ZM103.258 71.372C103.258 71.972 103.474 72.404 103.906 72.668C104.35 72.932 105.04 73.064 105.976 73.064C107.212 73.064 108.124 72.836 108.712 72.38C109.312 71.924 109.672 71.186 109.792 70.166V69.572H106.516C105.376 69.572 104.548 69.716 104.032 70.004C103.516 70.292 103.258 70.748 103.258 71.372ZM113.652 74L116.316 70.562C115.416 70.454 114.762 70.178 114.354 69.734C113.946 69.278 113.742 68.594 113.742 67.682C113.742 66.614 114.018 65.84 114.57 65.36C115.134 64.88 116.04 64.64 117.288 64.64H121.896V74H120.708V70.598H117.702L115.074 74H113.652ZM114.93 67.682C114.93 68.342 115.116 68.81 115.488 69.086C115.86 69.35 116.484 69.482 117.36 69.482H120.708V65.756H117.36C116.508 65.756 115.89 65.906 115.506 66.206C115.122 66.506 114.93 66.998 114.93 67.682ZM129.557 67.52C129.713 66.464 130.133 65.702 130.817 65.234C131.501 64.754 132.563 64.514 134.003 64.514C135.371 64.514 136.367 64.718 136.991 65.126C137.615 65.534 137.927 66.194 137.927 67.106C137.927 68.174 137.465 68.864 136.541 69.176C137.585 69.488 138.107 70.232 138.107 71.408C138.107 72.356 137.783 73.046 137.135 73.478C136.499 73.91 135.479 74.126 134.075 74.126C132.623 74.126 131.549 73.886 130.853 73.406C130.157 72.926 129.731 72.158 129.575 71.102H130.781C130.913 71.798 131.231 72.302 131.735 72.614C132.239 72.914 133.007 73.064 134.039 73.064C135.035 73.064 135.767 72.92 136.235 72.632C136.703 72.344 136.937 71.882 136.937 71.246C136.937 70.694 136.757 70.292 136.397 70.04C136.037 69.788 135.449 69.662 134.633 69.662H132.725V68.744H134.489C135.293 68.744 135.869 68.624 136.217 68.384C136.577 68.132 136.757 67.748 136.757 67.232C136.757 66.656 136.529 66.236 136.073 65.972C135.629 65.708 134.921 65.576 133.949 65.576C132.929 65.576 132.173 65.732 131.681 66.044C131.189 66.344 130.877 66.836 130.745 67.52H129.557ZM144.08 74.126C142.82 74.126 141.89 73.91 141.29 73.478C140.702 73.046 140.408 72.356 140.408 71.408C140.408 70.424 140.738 69.722 141.398 69.302C142.058 68.87 143.126 68.654 144.602 68.654H148.13V68.384C148.13 67.4 147.872 66.686 147.356 66.242C146.852 65.798 146.036 65.576 144.908 65.576C143.996 65.576 143.294 65.726 142.802 66.026C142.322 66.314 141.998 66.776 141.83 67.412H140.642C140.846 66.404 141.284 65.672 141.956 65.216C142.64 64.748 143.642 64.514 144.962 64.514C146.474 64.514 147.572 64.82 148.256 65.432C148.952 66.044 149.3 67.022 149.3 68.366V74H148.13V72.416C147.446 73.556 146.096 74.126 144.08 74.126ZM141.596 71.372C141.596 71.972 141.812 72.404 142.244 72.668C142.688 72.932 143.378 73.064 144.314 73.064C145.55 73.064 146.462 72.836 147.05 72.38C147.65 71.924 148.01 71.186 148.13 70.166V69.572H144.854C143.714 69.572 142.886 69.716 142.37 70.004C141.854 70.292 141.596 70.748 141.596 71.372ZM152.457 74V64.64H161.313V74H160.125V65.756H153.645V74H152.457ZM165.578 74H164.516V64.64H165.704V72.128L172.31 64.64H173.372V74H172.184V66.494L165.578 74ZM180.625 74.126C178.993 74.126 177.811 73.748 177.079 72.992C176.347 72.224 175.981 71 175.981 69.32C175.981 67.64 176.347 66.422 177.079 65.666C177.811 64.898 178.993 64.514 180.625 64.514C181.993 64.514 183.031 64.778 183.739 65.306C184.459 65.834 184.921 66.674 185.125 67.826H183.955C183.763 67.058 183.403 66.5 182.875 66.152C182.359 65.804 181.621 65.63 180.661 65.63C179.437 65.63 178.543 65.924 177.979 66.512C177.427 67.088 177.151 68.024 177.151 69.32C177.151 70.604 177.427 71.54 177.979 72.128C178.543 72.716 179.437 73.01 180.661 73.01C181.609 73.01 182.347 72.836 182.875 72.488C183.403 72.128 183.763 71.564 183.955 70.796H185.125C184.933 71.96 184.477 72.806 183.757 73.334C183.049 73.862 182.005 74.126 180.625 74.126ZM187.684 64.64H188.872V67.826H192.076C193.3 67.826 194.188 68.072 194.74 68.564C195.292 69.044 195.568 69.824 195.568 70.904C195.568 71.996 195.292 72.788 194.74 73.28C194.188 73.76 193.3 74 192.076 74H187.684V64.64ZM191.968 68.942H188.872V72.884H191.986C192.838 72.884 193.45 72.728 193.822 72.416C194.206 72.104 194.398 71.6 194.398 70.904C194.398 70.208 194.206 69.71 193.822 69.41C193.438 69.098 192.82 68.942 191.968 68.942Z" fill="white"/>
</svg>
