<svg width="226" height="50" viewBox="0 0 226 50" fill="none" xmlns="http://www.w3.org/2000/svg">
<ellipse cx="48.0767" cy="25" rx="24.6862" ry="25" fill="#F5CC37"/>
<ellipse cx="48.0767" cy="25" rx="24.6862" ry="25" fill="#F5CC37"/>
<rect x="12.899" y="17.5002" width="18.5146" height="1.875" rx="0.9375" fill="#F5CC37"/>
<rect x="0.555908" y="23.1248" width="18.5146" height="1.875" rx="0.9375" fill="#293BDD"/>
<rect x="11.0475" y="11.8752" width="8.64016" height="1.875" rx="0.9375" fill="#293BDD"/>
<rect x="12.899" y="29.3748" width="18.5146" height="1.875" rx="0.9375" fill="#F5CC37"/>
<rect x="20.3048" y="34.375" width="18.5146" height="1.875" rx="0.9375" fill="#F5CC37"/>
<rect x="6.11035" y="29.3748" width="3.70292" height="1.875" rx="0.9375" fill="#F5CC37"/>
<rect x="22.7734" y="6.25" width="3.70292" height="1.875" rx="0.9375" fill="#F5CC37"/>
<rect x="23.3905" y="45.6252" width="3.70292" height="1.875" rx="0.9375" fill="#F5CC37"/>
<rect x="12.899" y="40.0002" width="18.5146" height="1.875" rx="0.9375" fill="#293BDD"/>
<path d="M78.2053 11.5002H65.7471C65.7471 11.5002 62.0794 27.1416 60.3329 32.7488C58.5865 38.3561 54.707 39.8317 54.707 39.8317C54.707 39.8317 55.501 39.7727 59.809 39.8317C64.117 39.8907 67.4353 38.2971 68.1921 34.8147C68.949 31.3913 69.3565 29.9747 69.3565 29.9747H75.2945C81.5819 29.9747 85.3659 25.666 86.2392 21.2392C87.1124 16.8124 86.8214 11.5002 78.2053 11.5002ZM80.1265 19.7636C79.5443 23.5411 74.887 23.4821 72.0344 23.4821C71.9762 23.4821 71.918 23.4821 71.8016 23.4821H69.7058L71.1612 16.7534C77.041 16.8124 80.5922 16.8124 80.1265 19.7636Z" fill="#293BDD"/>
<path fill-rule="evenodd" clip-rule="evenodd" d="M105.555 13.5488C105.439 12.9635 105.088 12.4367 104.563 12.0856C104.038 11.7344 103.395 11.5002 102.636 11.5002H98.3161C97.5571 11.5002 96.7982 11.6758 96.0976 12.0856C95.397 12.4367 94.9299 12.9635 94.5796 13.5488L81.2102 37.7246C80.9183 38.2514 80.1593 39.7732 80.1593 39.7732C80.1593 39.7732 82.0275 39.7732 82.6113 39.7732H86.8149C87.5738 39.7732 88.2744 39.5976 88.9166 39.1879C89.6172 38.7782 90.0842 38.2514 90.3178 37.6661L91.6605 34.7395C91.7189 34.5639 91.8941 34.4469 92.186 34.4469H99.9508C100.184 34.4469 100.301 34.5639 100.359 34.7395L100.535 37.6661C100.593 38.2514 100.826 38.7782 101.294 39.1879C101.819 39.5391 102.461 39.7732 103.22 39.7732H107.599C108.241 39.7732 108.766 39.5391 109.234 39.1294C109.701 38.7196 109.876 38.2514 109.817 37.7246L105.555 13.5488ZM99.7172 28.7108C99.6589 28.7693 99.5421 28.7694 99.4837 28.7694H94.8132C94.6964 28.7694 94.638 28.7693 94.5796 28.7108C94.5213 28.6523 94.5213 28.5352 94.5796 28.4767L99.1334 17.9972C99.1334 17.9972 99.1334 17.9972 99.1918 17.9972C99.2502 17.9972 99.2502 17.9972 99.2502 18.0557L99.9508 28.5352C99.8924 28.5352 99.834 28.5937 99.7172 28.7108ZM138.716 12.088C138.483 12.088 138.249 12.088 138.074 12.088C137.841 12.088 137.607 12.088 137.315 12.088H132.411C131.652 12.088 130.893 12.2636 130.193 12.6733C129.55 13.0245 129.025 13.4927 128.616 14.1366L122.778 23.5016C122.778 23.5016 122.778 23.5601 122.72 23.5601C122.661 23.5601 122.661 23.5601 122.661 23.5016L120.443 14.1366C120.268 13.5513 119.917 13.0245 119.392 12.6733C118.808 12.3221 118.166 12.088 117.465 12.088H112.386C111.802 12.088 111.277 12.3221 110.927 12.7318C110.518 13.1415 110.46 13.6098 110.635 14.0195L116.823 29.2376C116.882 29.4132 116.94 29.6473 116.882 29.8814L115.364 37.6075C115.247 38.1928 115.364 38.7196 115.772 39.1294C116.181 39.5391 116.765 39.7732 117.465 39.7732H121.61C122.311 39.7732 122.953 39.5391 123.537 39.1294C124.121 38.7196 124.471 38.1928 124.588 37.6075L126.106 29.8814C126.164 29.5888 126.223 29.3547 126.339 29.2376L140.001 12.088H138.716ZM171.616 11.6783H168.347C167.704 11.6783 167.062 11.9124 166.537 12.3221C165.953 12.7318 165.603 13.2586 165.486 13.8439L162.917 27.0134C162.917 27.0134 162.917 27.0719 162.859 27.0719C162.859 27.0719 162.859 27.0719 162.8 27.0719L158.013 13.6683C157.546 12.3807 156.495 11.6783 154.86 11.6783H151.591C150.949 11.6783 150.307 11.9124 149.781 12.3221C149.197 12.7318 148.847 13.2586 148.73 13.8439L143.709 39.7732H149.373C150.015 39.7732 150.657 39.5391 151.182 39.1294C151.708 38.7196 152.116 38.1928 152.233 37.6075L154.802 24.438C154.802 24.438 154.802 24.438 154.86 24.438C154.86 24.438 154.86 24.438 154.919 24.438L159.706 37.8417C160.173 39.1294 161.224 39.8317 162.859 39.8317H166.128C166.77 39.8317 167.413 39.5976 167.938 39.1879C168.522 38.7782 168.872 38.2514 168.989 37.6661L173.601 13.961C173.718 13.3757 173.601 12.8489 173.192 12.4392C172.784 11.9124 172.258 11.6783 171.616 11.6783ZM196.136 11.6783H181.716C181.074 11.6783 180.432 11.9124 179.906 12.3221C179.322 12.7318 178.972 13.2586 178.855 13.8439L174.243 37.549C174.126 38.1343 174.243 38.6611 174.652 39.0708C175.061 39.4805 175.586 39.7147 176.228 39.7147H190.648C191.291 39.7147 191.933 39.4805 192.458 39.0708C193.042 38.6611 193.392 38.1343 193.509 37.549L193.859 35.7931C193.976 35.2078 193.86 34.681 193.451 34.2713C193.042 33.8615 192.517 33.6274 191.874 33.6274H183.993C183.759 33.6274 183.643 33.5104 183.701 33.2763L184.635 28.5352C184.694 28.3011 184.81 28.2426 185.102 28.2426H192.166C192.809 28.2426 193.451 28.0084 193.976 27.5987C194.56 27.189 194.91 26.6622 195.027 26.0769L195.319 24.6722C195.436 24.0869 195.319 23.5601 194.91 23.1503C194.502 22.7406 193.976 22.5065 193.334 22.5065H186.27C186.036 22.5065 185.92 22.3895 185.978 22.1553L186.737 18.1752C186.795 17.9411 186.912 17.8826 187.204 17.8826H195.085C195.728 17.8826 196.37 17.6484 196.895 17.2387C197.479 16.829 197.829 16.3022 197.946 15.7169L198.297 13.961C198.413 13.3757 198.297 12.8489 197.888 12.4392C197.304 11.9124 196.779 11.6783 196.136 11.6783ZM203.201 11.6783C202.558 11.6783 201.916 11.9124 201.391 12.3221C200.807 12.7318 200.457 13.2586 200.34 13.8439L199.931 15.834C199.814 16.4193 199.931 16.9461 200.34 17.3558C200.749 17.7655 201.274 17.9996 201.916 17.9996H207.112C207.346 17.9996 207.463 18.1167 207.404 18.3508L203.668 37.549C203.551 38.1343 203.668 38.6611 204.076 39.0708C204.485 39.4805 205.01 39.7147 205.653 39.7147H211.958L216.103 18.2923C216.161 18.0582 216.278 17.9411 216.57 17.9411H221.766C222.408 17.9411 223.05 17.707 223.576 17.2972C224.16 16.8875 224.51 16.3608 224.627 15.7754L225.444 11.6198H203.201V11.6783Z" fill="#293BDD"/>
<ellipse cx="136.21" cy="36.135" rx="3.61063" ry="3.65653" fill="#293BDD"/>
<path d="M37.7268 37.3918C39.6166 38.7559 40.9239 39.438 43.9786 39.438C47.7841 39.438 50.36 38.5592 52.4827 36.8016C54.6314 35.044 56.107 32.2895 56.9095 28.5382L60.2879 12.4837C60.3138 12.405 60.3267 12.3395 60.3267 12.287C60.3267 12.0771 60.262 11.9066 60.1326 11.7754C59.9772 11.5918 59.7572 11.5 59.4724 11.5H54.052C53.7931 11.5 53.5472 11.5918 53.3142 11.7754C53.0812 11.9591 52.9388 12.1952 52.887 12.4837L49.5087 28.4989C48.3014 32.8098 47.6233 33.7537 44.4835 33.6143C42.1994 33.5129 42.02 32.5145 42.6036 28.4989L45.5936 12.4837C45.6195 12.405 45.6324 12.3263 45.6324 12.2476C45.6324 12.0902 45.5807 11.9328 45.4771 11.7754C45.3218 11.5918 45.1017 11.5 44.817 11.5H38.6199L35.2416 28.5382C35.0345 29.5875 34.9309 30.4926 34.9309 31.2533C34.9309 33.9553 35.8629 36.0015 37.7268 37.3918Z" fill="#293BDD"/>
</svg>
