<svg width="48" height="38" viewBox="0 0 48 38" fill="none" xmlns="http://www.w3.org/2000/svg">
<g clip-path="url(#clip0_273_656)">
<path d="M47.0539 37.4846V37.5822H47.1434C47.1602 37.5825 47.1768 37.5782 47.1914 37.5698C47.1973 37.5656 47.202 37.56 47.2051 37.5534C47.2083 37.5469 47.2097 37.5397 47.2094 37.5324C47.2097 37.5253 47.2082 37.5182 47.2051 37.5118C47.2019 37.5055 47.1972 37.5 47.1914 37.496C47.177 37.4872 47.1603 37.4829 47.1434 37.4836H47.0539V37.4846ZM47.1444 37.4154C47.1828 37.413 47.2208 37.4243 47.2519 37.4472C47.2644 37.4576 47.2743 37.4708 47.2809 37.4859C47.2874 37.5009 47.2904 37.5172 47.2896 37.5336C47.2902 37.5478 47.2878 37.5619 47.2826 37.575C47.2773 37.5881 47.2694 37.5999 47.2594 37.6096C47.2353 37.6309 47.2052 37.6436 47.1734 37.646L47.2934 37.7852H47.201L47.0906 37.647H47.0549V37.7852H46.9776V37.4157H47.1456L47.1444 37.4154ZM47.1204 37.9127C47.1609 37.9131 47.2011 37.9047 47.2382 37.8883C47.2741 37.8726 47.3066 37.8501 47.3342 37.8221C47.3619 37.7941 47.384 37.7609 47.3993 37.7244C47.4308 37.647 47.4308 37.56 47.3993 37.4826C47.3838 37.4462 47.3617 37.4131 47.3342 37.3849C47.3066 37.3569 47.2741 37.3344 47.2382 37.3187C47.2009 37.3031 47.1608 37.2953 47.1204 37.2958C47.0793 37.2954 47.0385 37.3032 47.0004 37.3187C46.9638 37.3341 46.9304 37.3566 46.9022 37.3849C46.8598 37.4292 46.8311 37.4853 46.8197 37.5461C46.8083 37.6069 46.8147 37.6697 46.8382 37.7268C46.8528 37.7635 46.8746 37.7967 46.9022 37.8245C46.9305 37.8528 46.9638 37.8753 47.0004 37.8907C47.0383 37.9072 47.0792 37.9155 47.1204 37.9151V37.9127ZM47.1204 37.2069C47.2259 37.2068 47.3272 37.2489 47.4024 37.3241C47.4387 37.3602 47.4676 37.4033 47.4874 37.4509C47.5079 37.4997 47.5184 37.5522 47.5184 37.6053C47.5184 37.6584 47.5079 37.711 47.4874 37.7598C47.4671 37.8071 47.4383 37.8501 47.4024 37.8865C47.3656 37.9225 47.3227 37.9514 47.2759 37.972C47.2267 37.9933 47.1738 38.0041 47.1204 38.0038C47.0663 38.0042 47.0128 37.9934 46.963 37.972C46.9156 37.9519 46.8724 37.9229 46.8355 37.8865C46.7997 37.8487 46.7712 37.8043 46.7518 37.7556C46.7312 37.7068 46.7207 37.6543 46.7207 37.6012C46.7207 37.5481 46.7312 37.4955 46.7518 37.4467C46.7716 37.3992 46.8004 37.3561 46.8367 37.32C46.8731 37.283 46.9164 37.2539 46.9642 37.2345C47.014 37.2131 47.0675 37.2023 47.1216 37.2027L47.1204 37.2069ZM10.3716 35.7799C10.3716 35.0754 10.8252 34.4966 11.5666 34.4966C12.275 34.4966 12.7531 35.0505 12.7531 35.7799C12.7531 36.5094 12.275 37.0633 11.5666 37.0633C10.8252 37.0633 10.3716 36.4845 10.3716 35.7799ZM13.5607 35.7799V33.7749H12.7042V34.2633C12.4325 33.9024 12.0204 33.676 11.46 33.676C10.356 33.676 9.4896 34.5571 9.4896 35.7809C9.4896 37.0047 10.3555 37.8858 11.46 37.8858C12.0202 37.8858 12.4325 37.6592 12.7042 37.2985V37.7852H13.5598V35.7799H13.5607ZM42.5028 35.7799C42.5028 35.0754 42.9564 34.4966 43.698 34.4966C44.4072 34.4966 44.8846 35.0505 44.8846 35.7799C44.8846 36.5094 44.4072 37.0633 43.698 37.0633C42.9566 37.0633 42.5028 36.4845 42.5028 35.7799ZM45.6929 35.7799V32.1655H44.8356V34.2633C44.5639 33.9024 44.1518 33.676 43.5914 33.676C42.4874 33.676 41.621 34.5571 41.621 35.7809C41.621 37.0047 42.487 37.8858 43.5914 37.8858C44.1518 37.8858 44.5639 37.6592 44.8356 37.2985V37.7852H45.6929V35.7799ZM24.1918 34.4553C24.7438 34.4553 25.0982 34.8075 25.1887 35.4275H23.1449C23.2363 34.8487 23.5817 34.4553 24.192 34.4553H24.1918ZM24.209 33.6738C23.0546 33.6738 22.247 34.5286 22.247 35.7787C22.247 37.0533 23.087 37.8836 24.2664 37.8836C24.8597 37.8836 25.403 37.7329 25.8811 37.3219L25.4614 36.676C25.1311 36.9446 24.7106 37.0953 24.3154 37.0953C23.7634 37.0953 23.2608 36.8352 23.1372 36.1135H26.0621C26.0705 36.0051 26.0791 35.8957 26.0791 35.7785C26.0705 34.5288 25.3111 33.6736 24.2086 33.6736L24.209 33.6738ZM34.5502 35.7785C34.5502 35.0739 35.0038 34.4951 35.7451 34.4951C36.4536 34.4951 36.9317 35.049 36.9317 35.7785C36.9317 36.5079 36.4536 37.0618 35.7451 37.0618C35.0038 37.0618 34.5499 36.483 34.5499 35.7785H34.5502ZM37.739 35.7785V33.7749H36.883V34.2633C36.6103 33.9024 36.1992 33.676 35.6388 33.676C34.5348 33.676 33.6684 34.5571 33.6684 35.7809C33.6684 37.0047 34.5343 37.8858 35.6388 37.8858C36.1992 37.8858 36.6103 37.6592 36.883 37.2985V37.7852H37.7393V35.7799L37.739 35.7785ZM29.713 35.7785C29.713 36.9944 30.5448 37.8834 31.8144 37.8834C32.4077 37.8834 32.803 37.749 33.2304 37.4054L32.819 36.7009C32.4974 36.9361 32.1598 37.0618 31.787 37.0618C31.1033 37.0533 30.6005 36.5502 30.6005 35.7785C30.6005 35.0067 31.1033 34.5039 31.787 34.4951C32.1588 34.4951 32.4965 34.6209 32.819 34.8561L33.2304 34.1515C32.8022 33.8079 32.407 33.6736 31.8144 33.6736C30.5448 33.6736 29.713 34.5623 29.713 35.7785ZM40.7554 33.6736C40.2612 33.6736 39.9394 33.9087 39.7169 34.2609V33.7749H38.868V37.783H39.7255V35.5362C39.7255 34.8729 40.0056 34.5044 40.5655 34.5044C40.7489 34.5017 40.9309 34.536 41.1012 34.6052L41.3652 33.7837C41.1756 33.7078 40.9284 33.6743 40.7549 33.6743L40.7554 33.6736ZM17.7955 34.0936C17.3834 33.8172 16.8156 33.6743 16.1892 33.6743C15.1913 33.6743 14.5488 34.161 14.5488 34.9574C14.5488 35.6109 15.0271 36.0141 15.9079 36.1399L16.3126 36.1985C16.7822 36.2657 17.004 36.3914 17.004 36.6178C17.004 36.9277 16.692 37.1046 16.1062 37.1046C15.5129 37.1046 15.0847 36.9116 14.796 36.6852L14.3935 37.3649C14.8632 37.7171 15.4565 37.8851 16.099 37.8851C17.2366 37.8851 17.8958 37.34 17.8958 36.5768C17.8958 35.8722 17.377 35.5037 16.5197 35.378L16.116 35.3184C15.7452 35.2695 15.4481 35.1936 15.4481 34.9249C15.4481 34.6319 15.7282 34.4555 16.1981 34.4555C16.7009 34.4555 17.1876 34.6485 17.4262 34.7992L17.797 34.0946L17.7955 34.0936ZM28.8478 33.675C28.3536 33.675 28.0318 33.9102 27.8102 34.2624V33.7749H26.9614V37.783H27.8179V35.5362C27.8179 34.8729 28.098 34.5044 28.6579 34.5044C28.8413 34.5017 29.0233 34.536 29.1936 34.6052L29.4576 33.7837C29.268 33.7078 29.0208 33.6743 28.8473 33.6743L28.8478 33.675ZM21.5383 33.7749H20.1377V32.559H19.2718V33.7749H18.4728V34.5715H19.2718V36.4C19.2718 37.33 19.6265 37.8839 20.6398 37.8839C21.0115 37.8839 21.4397 37.7666 21.7114 37.5739L21.4639 36.8276C21.2083 36.9783 20.9282 37.0543 20.7055 37.0543C20.2774 37.0543 20.1377 36.7856 20.1377 36.3834V34.5723H21.5383V33.7749ZM8.73216 37.784V35.2685C8.73216 34.3212 8.13888 33.6838 7.18248 33.6753C6.67968 33.6667 6.16104 33.826 5.79792 34.3884C5.52624 33.9439 5.09808 33.6753 4.49616 33.6753C4.07544 33.6753 3.66432 33.801 3.34248 34.2704V33.7749H2.4852V37.783H3.3492V35.5606C3.3492 34.8649 3.7284 34.4951 4.314 34.4951C4.8828 34.4951 5.17056 34.8724 5.17056 35.5518V37.7825H6.03648V35.5601C6.03648 34.8644 6.43176 34.4946 7.00032 34.4946C7.5852 34.4946 7.86432 34.8719 7.86432 35.5513V37.782L8.73216 37.784Z" fill="#231F20"/>
<path d="M47.5427 24.4516V23.8655H47.3927L47.2192 24.2677L47.0466 23.8655H46.8962V24.4516H47.0027V24.0101L47.165 24.391H47.2754L47.4376 24.0091V24.4516H47.5432H47.5427ZM46.5911 24.4516V23.9659H46.7831V23.8669H46.2926V23.9659H46.4846V24.4516H46.5902H46.5911Z" fill="#F79410"/>
<path d="M30.4935 26.9651H17.5128V3.22729H30.4937L30.4935 26.9651Z" fill="#FF5F00"/>
<path d="M18.336 15.096C18.336 10.2808 20.5517 5.99137 24.0019 3.22709C21.3903 1.13158 18.16 -0.00571655 14.8342 -0.000716002C6.64128 -0.000716002 0 6.7582 0 15.096C0 23.4338 6.64128 30.1927 14.8342 30.1927C18.1601 30.1977 21.3904 29.0604 24.0022 26.9649C20.5522 24.2011 18.336 19.9114 18.336 15.096Z" fill="#EB001B"/>
<path d="M48.0054 15.0967C48.0054 23.4345 41.3641 30.1934 33.1712 30.1934C29.8449 30.1984 26.6142 29.0611 24.002 26.9656C27.4532 24.2013 29.6689 19.9122 29.6689 15.0967C29.6689 10.2813 27.4532 5.9921 24.002 3.22782C26.6141 1.13238 29.8447 -0.00489648 33.171 1.58471e-05C41.3638 1.58471e-05 48.0051 6.75894 48.0051 15.0967" fill="#F79E1B"/>
</g>
<defs>
<clipPath id="clip0_273_656">
<rect width="48" height="38" fill="white"/>
</clipPath>
</defs>
</svg>
