<svg width="110" height="29" viewBox="0 0 110 29" fill="none" xmlns="http://www.w3.org/2000/svg">
<path d="M41.1619 7.13159H35.0827C34.8815 7.13147 34.6868 7.20258 34.5338 7.33212C34.3807 7.46167 34.2794 7.64112 34.2481 7.83815L31.7894 23.2881C31.7781 23.3598 31.7826 23.4331 31.8026 23.5029C31.8226 23.5727 31.8577 23.6374 31.9053 23.6925C31.9529 23.7475 32.0121 23.7918 32.0786 23.822C32.1452 23.8523 32.2175 23.8679 32.2907 23.8678H35.193C35.3943 23.8679 35.5891 23.7967 35.7422 23.6669C35.8952 23.5372 35.9965 23.3576 36.0276 23.1604L36.6907 18.9933C36.7219 18.7962 36.823 18.6167 36.9759 18.487C37.1287 18.3573 37.3233 18.286 37.5245 18.2858H39.449C43.4534 18.2858 45.7646 16.3653 46.3681 12.5594C46.6401 10.8943 46.3797 9.58604 45.593 8.66981C44.729 7.66371 43.1965 7.13159 41.1619 7.13159ZM41.8632 12.7744C41.5308 14.9363 39.8641 14.9363 38.2525 14.9363H37.3352L37.9788 10.8987C37.9976 10.7806 38.0583 10.673 38.1501 10.5953C38.2418 10.5176 38.3585 10.475 38.4792 10.475H38.8996C39.9974 10.475 41.033 10.475 41.5681 11.0952C41.8872 11.4652 41.985 12.0149 41.8632 12.7744ZM59.3335 12.7048H56.4224C56.3017 12.7048 56.185 12.7474 56.0932 12.8251C56.0015 12.9028 55.9408 13.0104 55.9219 13.1285L55.793 13.9355L55.5895 13.643C54.9592 12.7365 53.5539 12.4334 52.1512 12.4334C48.9343 12.4334 46.1868 14.8482 45.6517 18.2356C45.3734 19.9254 45.769 21.5411 46.7361 22.6679C47.6232 23.7039 48.8926 24.1356 50.4028 24.1356C52.9948 24.1356 54.4321 22.4838 54.4321 22.4838L54.3024 23.2855C54.2908 23.3572 54.295 23.4305 54.3148 23.5004C54.3346 23.5703 54.3694 23.6351 54.4169 23.6903C54.4644 23.7456 54.5234 23.79 54.5899 23.8205C54.6563 23.851 54.7287 23.8668 54.8019 23.8669H57.4241C57.6255 23.867 57.8203 23.7958 57.9734 23.6661C58.1264 23.5363 58.2276 23.3567 58.2588 23.1595L59.8321 13.2844C59.8437 13.2129 59.8395 13.1398 59.8198 13.07C59.8 13.0003 59.7653 12.9356 59.7178 12.8805C59.6704 12.8254 59.6115 12.7811 59.5451 12.7508C59.4788 12.7204 59.4066 12.7047 59.3335 12.7048ZM55.2757 18.3202C54.9948 19.9685 53.6748 21.0751 51.9912 21.0751C51.1459 21.0751 50.4703 20.8064 50.0366 20.2972C49.6063 19.7915 49.4428 19.0717 49.5797 18.27C49.8419 16.6357 51.1841 15.4931 52.8419 15.4931C53.6686 15.4931 54.3406 15.7653 54.7832 16.2789C55.2268 16.7978 55.4028 17.522 55.2757 18.3202ZM74.8375 12.7048H71.9122C71.7742 12.705 71.6384 12.7385 71.5165 12.8026C71.3946 12.8666 71.2903 12.9591 71.2126 13.0721L67.1779 18.9624L65.4677 13.3021C65.4152 13.1294 65.308 12.9781 65.162 12.8705C65.016 12.763 64.839 12.7048 64.657 12.7048H61.7824C61.7017 12.7045 61.6221 12.7234 61.5503 12.7599C61.4784 12.7963 61.4164 12.8492 61.3694 12.9142C61.3223 12.9791 61.2916 13.0543 61.2798 13.1334C61.268 13.2126 61.2754 13.2933 61.3015 13.369L64.5237 22.741L61.4944 26.9795C61.4405 27.0546 61.4086 27.143 61.4021 27.2349C61.3955 27.3269 61.4147 27.4188 61.4574 27.5007C61.5 27.5826 61.5646 27.6513 61.6441 27.6992C61.7235 27.7471 61.8147 27.7724 61.9077 27.7724H64.8295C64.9659 27.7726 65.1003 27.74 65.2212 27.6773C65.3422 27.6147 65.4459 27.524 65.5237 27.4129L75.2535 13.4932C75.3063 13.4179 75.3372 13.3298 75.343 13.2383C75.3487 13.1468 75.3291 13.0555 75.2863 12.9742C75.2434 12.893 75.1789 12.8249 75.0998 12.7774C75.0207 12.7299 74.93 12.7048 74.8375 12.7048Z" fill="#253B80"/>
<path d="M84.5227 7.13174H78.4427C78.2416 7.13182 78.0472 7.20303 77.8943 7.33256C77.7415 7.46208 77.6403 7.64142 77.6089 7.8383L75.1503 23.2883C75.1388 23.3598 75.1432 23.433 75.163 23.5027C75.1829 23.5725 75.2177 23.6371 75.2652 23.6922C75.3127 23.7473 75.3717 23.7916 75.4381 23.8219C75.5045 23.8522 75.5767 23.868 75.6498 23.868H78.7698C78.9106 23.8678 79.0467 23.8178 79.1535 23.727C79.2604 23.6362 79.3312 23.5107 79.353 23.3728L80.0507 18.9934C80.0819 18.7964 80.183 18.6168 80.3358 18.4871C80.4887 18.3574 80.6833 18.2861 80.8845 18.286H82.8081C86.8134 18.286 89.1236 16.3654 89.7281 12.5595C90.001 10.8945 89.7388 9.58619 88.9521 8.66995C88.089 7.66386 86.5574 7.13174 84.5227 7.13174ZM85.2241 12.7745C84.8925 14.9365 83.2259 14.9365 81.6134 14.9365H80.697L81.3414 10.8989C81.3599 10.7807 81.4204 10.6731 81.512 10.5953C81.6037 10.5176 81.7203 10.475 81.841 10.4751H82.2614C83.3583 10.4751 84.3947 10.4751 84.9299 11.0953C85.249 11.4653 85.3459 12.0151 85.2241 12.7745ZM102.693 12.7049H99.7841C99.6635 12.7046 99.5467 12.7472 99.455 12.8249C99.3633 12.9027 99.3029 13.0105 99.2846 13.1287L99.1557 13.9356L98.9512 13.6432C98.321 12.7366 96.9166 12.4336 95.5139 12.4336C92.297 12.4336 89.5503 14.8484 89.0152 18.2358C88.7379 19.9255 89.1316 21.5413 90.0988 22.668C90.9877 23.7041 92.2552 24.1358 93.7654 24.1358C96.3574 24.1358 97.7948 22.4839 97.7948 22.4839L97.665 23.2856C97.6534 23.3574 97.6577 23.4309 97.6776 23.5009C97.6975 23.5709 97.7325 23.6358 97.7801 23.6911C97.8278 23.7464 97.887 23.7908 97.9537 23.8212C98.0204 23.8516 98.093 23.8672 98.1663 23.8671H100.788C100.989 23.867 101.183 23.7956 101.336 23.6659C101.489 23.5362 101.59 23.3567 101.621 23.1596L103.196 13.2846C103.207 13.2128 103.202 13.1396 103.182 13.0698C103.162 13 103.127 12.9353 103.079 12.8802C103.031 12.8252 102.972 12.781 102.906 12.7507C102.839 12.7204 102.767 12.7048 102.693 12.7049ZM98.6357 18.3203C98.3566 19.9687 97.0348 21.0752 95.3512 21.0752C94.5077 21.0752 93.8303 20.8065 93.3965 20.2973C92.9663 19.7916 92.8045 19.0718 92.9397 18.2701C93.2037 16.6359 94.5441 15.4932 96.2019 15.4932C97.0286 15.4932 97.7006 15.7655 98.1432 16.2791C98.5886 16.798 98.7646 17.5222 98.6357 18.3203ZM106.125 7.5555L103.63 23.2883C103.619 23.3598 103.623 23.433 103.643 23.5027C103.663 23.5725 103.698 23.6371 103.745 23.6922C103.793 23.7473 103.852 23.7916 103.918 23.8219C103.985 23.8522 104.057 23.868 104.13 23.868H106.638C107.055 23.868 107.409 23.5684 107.473 23.1605L109.933 7.71143C109.945 7.63982 109.941 7.56661 109.921 7.49682C109.901 7.42704 109.866 7.36234 109.819 7.30717C109.771 7.25201 109.712 7.20769 109.646 7.17725C109.579 7.14681 109.507 7.13099 109.434 7.13086H106.625C106.504 7.13128 106.388 7.17425 106.296 7.25206C106.205 7.32987 106.144 7.43744 106.125 7.5555Z" fill="#179BD7"/>
<path d="M6.54417 26.87L7.00906 23.9433L5.9735 23.9195H1.02859L4.46505 2.32376C4.47528 2.25777 4.50909 2.19763 4.56033 2.15429C4.61156 2.11095 4.6768 2.0873 4.74416 2.08765H13.082C15.85 2.08765 17.7602 2.65853 18.7575 3.78532C19.2251 4.31392 19.5229 4.8663 19.6669 5.47419C19.818 6.11203 19.8206 6.87408 19.6731 7.80353L19.6624 7.87137V8.46692L20.13 8.72945C20.4869 8.90868 20.8078 9.15113 21.0766 9.44482C21.4767 9.89677 21.7353 10.4712 21.8447 11.1522C21.9575 11.8526 21.9202 12.686 21.7353 13.6295C21.522 14.7149 21.1771 15.6602 20.7113 16.4337C20.3004 17.1267 19.7478 17.7268 19.0891 18.1957C18.4704 18.6309 17.7353 18.9613 16.9042 19.1727C16.0989 19.3807 15.1806 19.4855 14.1735 19.4855H13.5246C13.0606 19.4855 12.61 19.6511 12.2562 19.948C11.9029 20.2481 11.6685 20.6627 11.5948 21.118L11.546 21.3814L10.7246 26.5396L10.6873 26.729C10.6775 26.7889 10.6606 26.8189 10.6357 26.8391C10.6116 26.8587 10.5815 26.8696 10.5504 26.87H6.54417Z" fill="#253B80"/>
<path d="M20.5725 7.94019C20.5476 8.09788 20.5192 8.25911 20.4872 8.42473C19.3876 14.0199 15.6258 15.9528 10.8213 15.9528H8.37512C7.78756 15.9528 7.29245 16.3757 7.20089 16.9501L5.94844 24.8227L5.59378 27.0542C5.57965 27.1427 5.58504 27.2332 5.60959 27.3195C5.63413 27.4057 5.67725 27.4857 5.73596 27.5538C5.79467 27.622 5.86759 27.6767 5.94969 27.7143C6.0318 27.7518 6.12113 27.7713 6.21156 27.7713H10.5502C11.064 27.7713 11.5005 27.4013 11.5813 26.8992L11.624 26.6807L12.4409 21.5427L12.4934 21.2608C12.5734 20.7569 13.0107 20.3869 13.5245 20.3869H14.1734C18.3769 20.3869 21.6676 18.6953 22.6294 13.8006C23.0312 11.7558 22.8232 10.0484 21.76 8.84761C21.4231 8.47615 21.0207 8.16865 20.5725 7.94019Z" fill="#179BD7"/>
<path d="M19.4218 7.48571C19.0707 7.38505 18.7136 7.30649 18.3525 7.25049C17.639 7.14181 16.9179 7.08967 16.196 7.09455H9.66091C9.4122 7.09436 9.17163 7.18236 8.98268 7.34265C8.79374 7.50293 8.66888 7.72493 8.63068 7.9685L7.24045 16.6956L7.20045 16.9502C7.24376 16.6724 7.38597 16.4191 7.60135 16.2362C7.81672 16.0533 8.09104 15.9528 8.37468 15.9529H10.8209C15.6254 15.9529 19.3872 14.0192 20.4867 8.42485C20.5196 8.25923 20.5472 8.098 20.5721 7.94031C20.2819 7.7895 19.9795 7.66308 19.6681 7.56236C19.5864 7.53551 19.5043 7.50995 19.4218 7.48571Z" fill="#222D65"/>
<path d="M8.63074 7.96831C8.66861 7.72467 8.79341 7.50257 8.98245 7.34237C9.17149 7.18217 9.41224 7.09448 9.66097 7.09525H16.1961C16.9703 7.09525 17.693 7.14546 18.3525 7.25118C18.7989 7.3207 19.239 7.42468 19.669 7.56217C19.9934 7.66877 20.2948 7.79476 20.573 7.94012C20.9001 5.87243 20.5703 4.4646 19.4423 3.18981C18.1988 1.78638 15.9543 1.18555 13.0823 1.18555H4.74451C4.15784 1.18555 3.6574 1.60842 3.56673 2.18371L0.0938306 24.0015C0.0776544 24.1028 0.0838089 24.2064 0.111871 24.3051C0.139933 24.4038 0.189236 24.4953 0.256389 24.5733C0.323542 24.6514 0.406951 24.714 0.500879 24.7571C0.594806 24.8001 0.697024 24.8224 0.800499 24.8226H5.94807L7.24052 16.6954L8.63074 7.96831Z" fill="#253B80"/>
</svg>
