<svg width="66" height="22" viewBox="0 0 66 22" fill="none" xmlns="http://www.w3.org/2000/svg">
<path d="M28.6358 21.2941H23.2794L26.6271 0.720406H31.984L28.6358 21.2941ZM18.7733 0.720406L13.6667 14.8712L13.0624 11.824L13.063 11.8251L11.2606 2.57283C11.2606 2.57283 11.0427 0.720406 8.71975 0.720406H0.277624L0.178564 1.06877C0.178564 1.06877 2.76018 1.60589 5.78152 3.42035L10.4351 21.2947H16.0161L24.538 0.720406H18.7733ZM60.9041 21.2941H65.8224L61.5342 0.719856H57.2284C55.2401 0.719856 54.7558 2.25309 54.7558 2.25309L46.7671 21.2941H52.3508L53.4674 18.2381H60.2767L60.9041 21.2941ZM55.01 14.0165L57.8244 6.31731L59.4077 14.0165H55.01ZM47.1859 5.66791L47.9503 1.24983C47.9503 1.24983 45.5916 0.352783 43.1327 0.352783C40.4746 0.352783 34.1623 1.51454 34.1623 7.16372C34.1623 12.4789 41.5709 12.5449 41.5709 15.3367C41.5709 18.1286 34.9256 17.6283 32.7325 15.8678L31.9362 20.4873C31.9362 20.4873 34.3279 21.6491 37.9821 21.6491C41.6374 21.6491 47.1518 19.7565 47.1518 14.6053C47.1518 9.25609 39.6766 8.75804 39.6766 6.43233C39.6772 4.10607 44.8938 4.40489 47.1859 5.66791Z" fill="#2566AF"/>
</svg>
